ply
format ascii 1.0
comment Created by Blender 2.93.1 - www.blender.org
element vertex 198
property float x
property float y
property float z
property float nx
property float ny
property float nz
property float s
property float t
element face 176
property list uchar uint vertex_indices
end_header
-5.000000 1.000000 0.000000 0.000000 1.000000 -0.000000 0.875000 0.625000
-4.000000 1.000000 1.000000 0.000000 1.000000 -0.000000 0.750000 0.750000
-4.000000 1.000000 0.000000 0.000000 1.000000 -0.000000 0.750000 0.625000
-4.000000 1.000000 1.000000 0.000000 -0.000000 1.000000 0.625000 0.875000
-5.000000 0.000000 1.000000 0.000000 -0.000000 1.000000 0.500000 1.000000
-4.000000 0.000000 1.000000 0.000000 -0.000000 1.000000 0.500000 0.875000
-5.000000 1.000000 0.000000 -1.000000 0.000000 0.000000 0.625000 0.125000
-5.000000 0.000000 -1.000000 -1.000000 0.000000 0.000000 0.500000 0.250000
-5.000000 0.000000 0.000000 -1.000000 0.000000 0.000000 0.500000 0.125000
-3.000000 -1.000000 0.000000 0.000000 -1.000000 0.000000 0.375000 0.625000
-4.000000 -1.000000 1.000000 0.000000 -1.000000 0.000000 0.250000 0.750000
-4.000000 -1.000000 0.000000 0.000000 -1.000000 0.000000 0.250000 0.625000
-4.000000 1.000000 -1.000000 0.000000 0.000000 -1.000000 0.625000 0.375000
-3.000000 0.000000 -1.000000 0.000000 0.000000 -1.000000 0.500000 0.500000
-4.000000 0.000000 -1.000000 0.000000 0.000000 -1.000000 0.500000 0.375000
-3.000000 -1.000000 -1.000000 0.000000 0.000000 -1.000000 0.375000 0.500000
-4.000000 -1.000000 -1.000000 0.000000 0.000000 -1.000000 0.375000 0.375000
-5.000000 0.000000 -1.000000 0.000000 0.000000 -1.000000 0.500000 0.250000
-5.000000 -1.000000 -1.000000 0.000000 0.000000 -1.000000 0.375000 0.250000
-5.000000 1.000000 -1.000000 0.000000 0.000000 -1.000000 0.625000 0.250000
-5.000000 -1.000000 1.000000 0.000000 -1.000000 0.000000 0.125000 0.750000
-5.000000 -1.000000 0.000000 0.000000 -1.000000 0.000000 0.125000 0.625000
-4.000000 -1.000000 -1.000000 0.000000 -1.000000 0.000000 0.250000 0.500000
-5.000000 -1.000000 -1.000000 0.000000 -1.000000 0.000000 0.125000 0.500000
-3.000000 -1.000000 -1.000000 0.000000 -1.000000 0.000000 0.375000 0.500000
-5.000000 -1.000000 -1.000000 -1.000000 0.000000 0.000000 0.375000 0.250000
-5.000000 -1.000000 0.000000 -1.000000 0.000000 0.000000 0.375000 0.125000
-5.000000 0.000000 1.000000 -1.000000 0.000000 0.000000 0.500000 0.000000
-5.000000 -1.000000 1.000000 -1.000000 0.000000 0.000000 0.375000 0.000000
-5.000000 1.000000 1.000000 -1.000000 0.000000 0.000000 0.625000 0.000000
-5.000000 -1.000000 1.000000 0.000000 -0.000000 1.000000 0.375000 1.000000
-4.000000 -1.000000 1.000000 0.000000 -0.000000 1.000000 0.375000 0.875000
-3.000000 0.000000 1.000000 0.000000 -0.000000 1.000000 0.500000 0.750000
-3.000000 -1.000000 1.000000 0.000000 -0.000000 1.000000 0.375000 0.750000
-3.000000 1.000000 1.000000 0.000000 -0.000000 1.000000 0.625000 0.750000
-3.000000 1.000000 1.000000 0.000000 1.000000 -0.000000 0.625000 0.750000
-3.000000 1.000000 0.000000 0.000000 1.000000 -0.000000 0.625000 0.625000
-4.000000 1.000000 -1.000000 0.000000 1.000000 -0.000000 0.750000 0.500000
-3.000000 1.000000 -1.000000 0.000000 1.000000 -0.000000 0.625000 0.500000
-5.000000 1.000000 -1.000000 0.000000 1.000000 -0.000000 0.875000 0.500000
-5.000000 1.000000 1.000000 0.000000 1.000000 0.000000 0.875000 0.750000
-5.000000 1.000000 1.000000 0.000000 0.000000 1.000000 0.625000 1.000000
-5.000000 1.000000 -1.000000 -1.000000 0.000000 0.000000 0.625000 0.250000
-3.000000 -1.000000 1.000000 0.000000 -1.000000 0.000000 0.375000 0.750000
-3.000000 1.000000 -1.000000 0.000000 0.000000 -1.000000 0.625000 0.500000
3.000000 1.000000 0.000000 0.000000 1.000000 -0.000000 0.875000 0.625000
4.000000 1.000000 1.000000 0.000000 1.000000 -0.000000 0.750000 0.750000
4.000000 1.000000 0.000000 0.000000 1.000000 -0.000000 0.750000 0.625000
4.000000 1.000000 1.000000 0.000000 -0.000000 1.000000 0.625000 0.875000
3.000000 0.000000 1.000000 0.000000 -0.000000 1.000000 0.500000 1.000000
4.000000 0.000000 1.000000 0.000000 -0.000000 1.000000 0.500000 0.875000
5.000000 -1.000000 0.000000 0.000000 -1.000000 0.000000 0.375000 0.625000
4.000000 -1.000000 1.000000 0.000000 -1.000000 0.000000 0.250000 0.750000
4.000000 -1.000000 0.000000 0.000000 -1.000000 0.000000 0.250000 0.625000
5.000000 1.000000 0.000000 1.000000 -0.000000 0.000000 0.625000 0.625000
5.000000 0.000000 1.000000 1.000000 -0.000000 0.000000 0.500000 0.750000
5.000000 0.000000 0.000000 1.000000 -0.000000 0.000000 0.500000 0.625000
4.000000 1.000000 -1.000000 0.000000 0.000000 -1.000000 0.625000 0.375000
5.000000 0.000000 -1.000000 0.000000 0.000000 -1.000000 0.500000 0.500000
4.000000 0.000000 -1.000000 0.000000 0.000000 -1.000000 0.500000 0.375000
5.000000 -1.000000 -1.000000 0.000000 0.000000 -1.000000 0.375000 0.500000
4.000000 -1.000000 -1.000000 0.000000 0.000000 -1.000000 0.375000 0.375000
3.000000 0.000000 -1.000000 0.000000 0.000000 -1.000000 0.500000 0.250000
3.000000 -1.000000 -1.000000 0.000000 0.000000 -1.000000 0.375000 0.250000
3.000000 1.000000 -1.000000 0.000000 0.000000 -1.000000 0.625000 0.250000
5.000000 -1.000000 1.000000 1.000000 -0.000000 0.000000 0.375000 0.750000
5.000000 -1.000000 0.000000 1.000000 -0.000000 0.000000 0.375000 0.625000
5.000000 0.000000 -1.000000 1.000000 -0.000000 0.000000 0.500000 0.500000
5.000000 -1.000000 -1.000000 1.000000 -0.000000 0.000000 0.375000 0.500000
5.000000 1.000000 -1.000000 1.000000 -0.000000 0.000000 0.625000 0.500000
3.000000 -1.000000 1.000000 0.000000 -1.000000 0.000000 0.125000 0.750000
3.000000 -1.000000 0.000000 0.000000 -1.000000 0.000000 0.125000 0.625000
4.000000 -1.000000 -1.000000 0.000000 -1.000000 0.000000 0.250000 0.500000
3.000000 -1.000000 -1.000000 0.000000 -1.000000 0.000000 0.125000 0.500000
5.000000 -1.000000 -1.000000 0.000000 -1.000000 0.000000 0.375000 0.500000
3.000000 -1.000000 1.000000 0.000000 -0.000000 1.000000 0.375000 1.000000
4.000000 -1.000000 1.000000 0.000000 -0.000000 1.000000 0.375000 0.875000
5.000000 0.000000 1.000000 0.000000 -0.000000 1.000000 0.500000 0.750000
5.000000 -1.000000 1.000000 0.000000 -0.000000 1.000000 0.375000 0.750000
5.000000 1.000000 1.000000 0.000000 -0.000000 1.000000 0.625000 0.750000
5.000000 1.000000 1.000000 0.000000 1.000000 -0.000000 0.625000 0.750000
5.000000 1.000000 0.000000 0.000000 1.000000 -0.000000 0.625000 0.625000
4.000000 1.000000 -1.000000 0.000000 1.000000 -0.000000 0.750000 0.500000
5.000000 1.000000 -1.000000 0.000000 1.000000 -0.000000 0.625000 0.500000
3.000000 1.000000 -1.000000 0.000000 1.000000 -0.000000 0.875000 0.500000
3.000000 1.000000 1.000000 0.000000 1.000000 0.000000 0.875000 0.750000
3.000000 1.000000 1.000000 0.000000 0.000000 1.000000 0.625000 1.000000
5.000000 -1.000000 1.000000 0.000000 -1.000000 0.000000 0.375000 0.750000
5.000000 1.000000 1.000000 1.000000 -0.000000 0.000000 0.625000 0.750000
5.000000 1.000000 -1.000000 0.000000 0.000000 -1.000000 0.625000 0.500000
-1.000000 1.000000 0.000000 0.000000 1.000000 -0.000000 0.875000 0.625000
0.000000 1.000000 1.000000 0.000000 1.000000 -0.000000 0.750000 0.750000
0.000000 1.000000 0.000000 0.000000 1.000000 -0.000000 0.750000 0.625000
0.000000 1.000000 1.000000 0.000000 -0.000000 1.000000 0.625000 0.875000
-1.000000 0.000000 1.000000 0.000000 -0.000000 1.000000 0.500000 1.000000
0.000000 0.000000 1.000000 0.000000 -0.000000 1.000000 0.500000 0.875000
1.000000 -1.000000 0.000000 0.000000 -1.000000 0.000000 0.375000 0.625000
0.000000 -1.000000 1.000000 0.000000 -1.000000 0.000000 0.250000 0.750000
0.000000 -1.000000 0.000000 0.000000 -1.000000 0.000000 0.250000 0.625000
0.000000 1.000000 -1.000000 0.000000 0.000000 -1.000000 0.625000 0.375000
1.000000 0.000000 -1.000000 0.000000 0.000000 -1.000000 0.500000 0.500000
0.000000 0.000000 -1.000000 0.000000 0.000000 -1.000000 0.500000 0.375000
1.000000 -1.000000 -1.000000 0.000000 0.000000 -1.000000 0.375000 0.500000
0.000000 -1.000000 -1.000000 0.000000 0.000000 -1.000000 0.375000 0.375000
-1.000000 0.000000 -1.000000 0.000000 0.000000 -1.000000 0.500000 0.250000
-1.000000 -1.000000 -1.000000 0.000000 0.000000 -1.000000 0.375000 0.250000
-1.000000 1.000000 -1.000000 0.000000 0.000000 -1.000000 0.625000 0.250000
-1.000000 -1.000000 1.000000 0.000000 -1.000000 0.000000 0.125000 0.750000
-1.000000 -1.000000 0.000000 0.000000 -1.000000 0.000000 0.125000 0.625000
0.000000 -1.000000 -1.000000 0.000000 -1.000000 0.000000 0.250000 0.500000
-1.000000 -1.000000 -1.000000 0.000000 -1.000000 0.000000 0.125000 0.500000
1.000000 -1.000000 -1.000000 0.000000 -1.000000 0.000000 0.375000 0.500000
-1.000000 -1.000000 1.000000 0.000000 -0.000000 1.000000 0.375000 1.000000
0.000000 -1.000000 1.000000 0.000000 -0.000000 1.000000 0.375000 0.875000
1.000000 0.000000 1.000000 0.000000 -0.000000 1.000000 0.500000 0.750000
1.000000 -1.000000 1.000000 0.000000 -0.000000 1.000000 0.375000 0.750000
1.000000 1.000000 1.000000 0.000000 -0.000000 1.000000 0.625000 0.750000
1.000000 1.000000 1.000000 0.000000 1.000000 -0.000000 0.625000 0.750000
1.000000 1.000000 0.000000 0.000000 1.000000 -0.000000 0.625000 0.625000
0.000000 1.000000 -1.000000 0.000000 1.000000 -0.000000 0.750000 0.500000
1.000000 1.000000 -1.000000 0.000000 1.000000 -0.000000 0.625000 0.500000
-1.000000 1.000000 -1.000000 0.000000 1.000000 -0.000000 0.875000 0.500000
-1.000000 1.000000 1.000000 0.000000 1.000000 0.000000 0.875000 0.750000
-1.000000 1.000000 1.000000 0.000000 0.000000 1.000000 0.625000 1.000000
1.000000 -1.000000 1.000000 0.000000 -1.000000 0.000000 0.375000 0.750000
1.000000 1.000000 -1.000000 0.000000 0.000000 -1.000000 0.625000 0.500000
1.000000 1.000000 0.000000 0.000000 1.000000 -0.000000 0.875000 0.625000
2.000000 1.000000 1.000000 0.000000 1.000000 -0.000000 0.750000 0.750000
2.000000 1.000000 0.000000 0.000000 1.000000 -0.000000 0.750000 0.625000
2.000000 1.000000 1.000000 0.000000 -0.000000 1.000000 0.625000 0.875000
1.000000 0.000000 1.000000 0.000000 -0.000000 1.000000 0.500000 1.000000
2.000000 0.000000 1.000000 0.000000 -0.000000 1.000000 0.500000 0.875000
3.000000 -1.000000 0.000000 0.000000 -1.000000 0.000000 0.375000 0.625000
2.000000 -1.000000 1.000000 0.000000 -1.000000 0.000000 0.250000 0.750000
2.000000 -1.000000 0.000000 0.000000 -1.000000 0.000000 0.250000 0.625000
2.000000 1.000000 -1.000000 0.000000 0.000000 -1.000000 0.625000 0.375000
3.000000 0.000000 -1.000000 0.000000 0.000000 -1.000000 0.500000 0.500000
2.000000 0.000000 -1.000000 0.000000 0.000000 -1.000000 0.500000 0.375000
3.000000 -1.000000 -1.000000 0.000000 0.000000 -1.000000 0.375000 0.500000
2.000000 -1.000000 -1.000000 0.000000 0.000000 -1.000000 0.375000 0.375000
1.000000 0.000000 -1.000000 0.000000 0.000000 -1.000000 0.500000 0.250000
1.000000 -1.000000 -1.000000 0.000000 0.000000 -1.000000 0.375000 0.250000
1.000000 1.000000 -1.000000 0.000000 0.000000 -1.000000 0.625000 0.250000
1.000000 -1.000000 1.000000 0.000000 -1.000000 0.000000 0.125000 0.750000
1.000000 -1.000000 0.000000 0.000000 -1.000000 0.000000 0.125000 0.625000
2.000000 -1.000000 -1.000000 0.000000 -1.000000 0.000000 0.250000 0.500000
1.000000 -1.000000 -1.000000 0.000000 -1.000000 0.000000 0.125000 0.500000
3.000000 -1.000000 -1.000000 0.000000 -1.000000 0.000000 0.375000 0.500000
1.000000 -1.000000 1.000000 0.000000 -0.000000 1.000000 0.375000 1.000000
2.000000 -1.000000 1.000000 0.000000 -0.000000 1.000000 0.375000 0.875000
3.000000 0.000000 1.000000 0.000000 -0.000000 1.000000 0.500000 0.750000
3.000000 -1.000000 1.000000 0.000000 -0.000000 1.000000 0.375000 0.750000
3.000000 1.000000 1.000000 0.000000 -0.000000 1.000000 0.625000 0.750000
3.000000 1.000000 1.000000 0.000000 1.000000 -0.000000 0.625000 0.750000
3.000000 1.000000 0.000000 0.000000 1.000000 -0.000000 0.625000 0.625000
2.000000 1.000000 -1.000000 0.000000 1.000000 -0.000000 0.750000 0.500000
3.000000 1.000000 -1.000000 0.000000 1.000000 -0.000000 0.625000 0.500000
1.000000 1.000000 -1.000000 0.000000 1.000000 -0.000000 0.875000 0.500000
1.000000 1.000000 1.000000 0.000000 1.000000 0.000000 0.875000 0.750000
1.000000 1.000000 1.000000 0.000000 0.000000 1.000000 0.625000 1.000000
3.000000 -1.000000 1.000000 0.000000 -1.000000 0.000000 0.375000 0.750000
3.000000 1.000000 -1.000000 0.000000 0.000000 -1.000000 0.625000 0.500000
-3.000000 1.000000 0.000000 0.000000 1.000000 -0.000000 0.875000 0.625000
-2.000000 1.000000 1.000000 0.000000 1.000000 -0.000000 0.750000 0.750000
-2.000000 1.000000 0.000000 0.000000 1.000000 -0.000000 0.750000 0.625000
-2.000000 1.000000 1.000000 0.000000 -0.000000 1.000000 0.625000 0.875000
-3.000000 0.000000 1.000000 0.000000 -0.000000 1.000000 0.500000 1.000000
-2.000000 0.000000 1.000000 0.000000 -0.000000 1.000000 0.500000 0.875000
-1.000000 -1.000000 0.000000 0.000000 -1.000000 0.000000 0.375000 0.625000
-2.000000 -1.000000 1.000000 0.000000 -1.000000 0.000000 0.250000 0.750000
-2.000000 -1.000000 0.000000 0.000000 -1.000000 0.000000 0.250000 0.625000
-2.000000 1.000000 -1.000000 0.000000 0.000000 -1.000000 0.625000 0.375000
-1.000000 0.000000 -1.000000 0.000000 0.000000 -1.000000 0.500000 0.500000
-2.000000 0.000000 -1.000000 0.000000 0.000000 -1.000000 0.500000 0.375000
-1.000000 -1.000000 -1.000000 0.000000 0.000000 -1.000000 0.375000 0.500000
-2.000000 -1.000000 -1.000000 0.000000 0.000000 -1.000000 0.375000 0.375000
-3.000000 0.000000 -1.000000 0.000000 0.000000 -1.000000 0.500000 0.250000
-3.000000 -1.000000 -1.000000 0.000000 0.000000 -1.000000 0.375000 0.250000
-3.000000 1.000000 -1.000000 0.000000 0.000000 -1.000000 0.625000 0.250000
-3.000000 -1.000000 1.000000 0.000000 -1.000000 0.000000 0.125000 0.750000
-3.000000 -1.000000 0.000000 0.000000 -1.000000 0.000000 0.125000 0.625000
-2.000000 -1.000000 -1.000000 0.000000 -1.000000 0.000000 0.250000 0.500000
-3.000000 -1.000000 -1.000000 0.000000 -1.000000 0.000000 0.125000 0.500000
-1.000000 -1.000000 -1.000000 0.000000 -1.000000 0.000000 0.375000 0.500000
-3.000000 -1.000000 1.000000 0.000000 -0.000000 1.000000 0.375000 1.000000
-2.000000 -1.000000 1.000000 0.000000 -0.000000 1.000000 0.375000 0.875000
-1.000000 0.000000 1.000000 0.000000 -0.000000 1.000000 0.500000 0.750000
-1.000000 -1.000000 1.000000 0.000000 -0.000000 1.000000 0.375000 0.750000
-1.000000 1.000000 1.000000 0.000000 -0.000000 1.000000 0.625000 0.750000
-1.000000 1.000000 1.000000 0.000000 1.000000 -0.000000 0.625000 0.750000
-1.000000 1.000000 0.000000 0.000000 1.000000 -0.000000 0.625000 0.625000
-2.000000 1.000000 -1.000000 0.000000 1.000000 -0.000000 0.750000 0.500000
-1.000000 1.000000 -1.000000 0.000000 1.000000 -0.000000 0.625000 0.500000
-3.000000 1.000000 -1.000000 0.000000 1.000000 -0.000000 0.875000 0.500000
-3.000000 1.000000 1.000000 0.000000 1.000000 0.000000 0.875000 0.750000
-3.000000 1.000000 1.000000 0.000000 0.000000 1.000000 0.625000 1.000000
-1.000000 -1.000000 1.000000 0.000000 -1.000000 0.000000 0.375000 0.750000
-1.000000 1.000000 -1.000000 0.000000 0.000000 -1.000000 0.625000 0.500000
3 0 1 2
3 3 4 5
3 6 7 8
3 9 10 11
3 12 13 14
3 14 15 16
3 17 16 18
3 19 14 17
3 11 20 21
3 22 21 23
3 24 11 22
3 8 25 26
3 27 26 28
3 29 8 27
3 5 30 31
3 32 31 33
3 34 5 32
3 2 35 36
3 37 36 38
3 39 2 37
3 0 40 1
3 3 41 4
3 6 42 7
3 9 43 10
3 12 44 13
3 14 13 15
3 17 14 16
3 19 12 14
3 11 10 20
3 22 11 21
3 24 9 11
3 8 7 25
3 27 8 26
3 29 6 8
3 5 4 30
3 32 5 31
3 34 3 5
3 2 1 35
3 37 2 36
3 39 0 2
3 45 46 47
3 48 49 50
3 51 52 53
3 54 55 56
3 57 58 59
3 59 60 61
3 62 61 63
3 64 59 62
3 56 65 66
3 67 66 68
3 69 56 67
3 53 70 71
3 72 71 73
3 74 53 72
3 50 75 76
3 77 76 78
3 79 50 77
3 47 80 81
3 82 81 83
3 84 47 82
3 45 85 46
3 48 86 49
3 51 87 52
3 54 88 55
3 57 89 58
3 59 58 60
3 62 59 61
3 64 57 59
3 56 55 65
3 67 56 66
3 69 54 56
3 53 52 70
3 72 53 71
3 74 51 53
3 50 49 75
3 77 50 76
3 79 48 50
3 47 46 80
3 82 47 81
3 84 45 47
3 90 91 92
3 93 94 95
3 96 97 98
3 99 100 101
3 101 102 103
3 104 103 105
3 106 101 104
3 98 107 108
3 109 108 110
3 111 98 109
3 95 112 113
3 114 113 115
3 116 95 114
3 92 117 118
3 119 118 120
3 121 92 119
3 90 122 91
3 93 123 94
3 96 124 97
3 99 125 100
3 101 100 102
3 104 101 103
3 106 99 101
3 98 97 107
3 109 98 108
3 111 96 98
3 95 94 112
3 114 95 113
3 116 93 95
3 92 91 117
3 119 92 118
3 121 90 92
3 126 127 128
3 129 130 131
3 132 133 134
3 135 136 137
3 137 138 139
3 140 139 141
3 142 137 140
3 134 143 144
3 145 144 146
3 147 134 145
3 131 148 149
3 150 149 151
3 152 131 150
3 128 153 154
3 155 154 156
3 157 128 155
3 126 158 127
3 129 159 130
3 132 160 133
3 135 161 136
3 137 136 138
3 140 137 139
3 142 135 137
3 134 133 143
3 145 134 144
3 147 132 134
3 131 130 148
3 150 131 149
3 152 129 131
3 128 127 153
3 155 128 154
3 157 126 128
3 162 163 164
3 165 166 167
3 168 169 170
3 171 172 173
3 173 174 175
3 176 175 177
3 178 173 176
3 170 179 180
3 181 180 182
3 183 170 181
3 167 184 185
3 186 185 187
3 188 167 186
3 164 189 190
3 191 190 192
3 193 164 191
3 162 194 163
3 165 195 166
3 168 196 169
3 171 197 172
3 173 172 174
3 176 173 175
3 178 171 173
3 170 169 179
3 181 170 180
3 183 168 170
3 167 166 184
3 186 167 185
3 188 165 167
3 164 163 189
3 191 164 190
3 193 162 164
