ply
format ascii 1.0
comment Created by Blender 2.93.1 - www.blender.org
element vertex 300
property float x
property float y
property float z
property float nx
property float ny
property float nz
element face 100
property list uchar uint vertex_indices
end_header
-1.078826 1.758019 0.007845 -0.092578 0.995152 -0.033202
-1.289846 1.751217 0.392383 -0.092578 0.995152 -0.033202
-0.824055 1.801229 0.592604 -0.092578 0.995152 -0.033202
0.789374 0.206554 -0.072718 0.735593 0.051760 -0.675443
1.071311 0.516899 0.258108 0.735593 0.051760 -0.675443
1.050634 0.052143 0.199974 0.735593 0.051760 -0.675443
0.714760 0.903581 -0.220781 0.845845 0.471885 -0.248737
0.844722 1.047714 0.494600 0.845845 0.471885 -0.248737
1.071311 0.516899 0.258108 0.845845 0.471885 -0.248737
-1.285395 1.419454 0.117938 -0.821638 0.356743 -0.444574
-1.289846 1.751217 0.392383 -0.821638 0.356743 -0.444574
-1.078826 1.758019 0.007845 -0.821638 0.356743 -0.444574
0.281748 0.435191 0.998874 0.229389 0.329144 0.915994
0.321551 0.998471 0.786503 0.229389 0.329144 0.915994
-0.178509 0.788219 0.987281 0.229389 0.329144 0.915994
0.789374 0.206554 -0.072718 0.782111 -0.048248 -0.621269
0.714760 0.903581 -0.220781 0.782111 -0.048248 -0.621269
1.071311 0.516899 0.258108 0.782111 -0.048248 -0.621269
-0.769638 0.565635 0.785729 -0.045842 0.124274 0.991188
-0.377706 0.866879 0.766086 -0.045842 0.124274 0.991188
-1.003263 1.027801 0.716977 -0.045842 0.124274 0.991188
-0.093929 0.127631 0.847276 -0.016919 -0.425350 0.904871
0.410356 -0.064684 0.766303 -0.016919 -0.425350 0.904871
0.281748 0.435191 0.998874 -0.016919 -0.425350 0.904871
-0.377706 0.866879 0.766086 0.110016 0.655634 0.747021
-0.457391 1.362616 0.342730 0.110016 0.655634 0.747021
-1.003263 1.027801 0.716977 0.110016 0.655634 0.747021
-0.412202 0.180792 0.668273 0.162084 -0.147255 0.975728
-0.377706 0.866879 0.766086 0.162084 -0.147255 0.975728
-0.769638 0.565635 0.785729 0.162084 -0.147255 0.975728
-0.377706 0.866879 0.766086 -0.268980 0.600109 0.753338
0.268242 1.394231 0.576633 -0.268980 0.600109 0.753338
-0.457391 1.362616 0.342730 -0.268980 0.600109 0.753338
-0.840051 -0.054613 0.812900 -0.410310 0.883818 0.224750
-0.412202 0.180792 0.668273 -0.410310 0.883818 0.224750
-0.643231 0.161951 0.320593 -0.410310 0.883818 0.224750
-0.093929 0.127631 0.847276 -0.198484 -0.227466 0.953343
0.281748 0.435191 0.998874 -0.198484 -0.227466 0.953343
-0.178509 0.788219 0.987281 -0.198484 -0.227466 0.953343
0.321551 0.998471 0.786503 -0.111225 0.453856 0.884106
0.268242 1.394231 0.576633 -0.111225 0.453856 0.884106
-0.377706 0.866879 0.766086 -0.111225 0.453856 0.884106
-0.669113 1.792139 0.265312 -0.301750 0.823543 0.480336
-0.076914 2.346303 -0.312786 -0.301750 0.823543 0.480336
-0.873760 1.801874 0.120062 -0.301750 0.823543 0.480336
-1.029738 1.297282 0.984665 0.716420 0.222126 0.661364
-0.457391 1.362616 0.342730 0.716420 0.222126 0.661364
-0.824055 1.801229 0.592604 0.716420 0.222126 0.661364
-1.029738 1.297282 0.984665 0.676998 -0.484133 0.554335
-1.003263 1.027801 0.716977 0.676998 -0.484133 0.554335
-0.457391 1.362616 0.342730 0.676998 -0.484133 0.554335
0.812873 0.218597 0.601211 0.512860 -0.250131 0.821224
0.281748 0.435191 0.998874 0.512860 -0.250131 0.821224
0.410356 -0.064684 0.766303 0.512860 -0.250131 0.821224
0.844722 1.047714 0.494600 0.445771 0.288044 0.847537
0.321551 0.998471 0.786503 0.445771 0.288044 0.847537
0.281748 0.435191 0.998874 0.445771 0.288044 0.847537
0.844722 1.047714 0.494600 0.395483 0.471316 0.788324
0.268242 1.394231 0.576633 0.395483 0.471316 0.788324
0.321551 0.998471 0.786503 0.395483 0.471316 0.788324
1.071311 0.516899 0.258108 0.775882 0.051052 0.628809
0.844722 1.047714 0.494600 0.775882 0.051052 0.628809
0.812873 0.218597 0.601211 0.775882 0.051052 0.628809
0.348038 -0.129874 -0.242669 0.730739 -0.561046 -0.388907
0.511142 0.156832 -0.349812 0.730739 -0.561046 -0.388907
0.602797 -0.127378 0.232412 0.730739 -0.561046 -0.388907
1.050634 0.052143 0.199974 0.835952 -0.104582 0.538745
1.071311 0.516899 0.258108 0.835952 -0.104582 0.538745
0.812873 0.218597 0.601211 0.835952 -0.104582 0.538745
0.812873 0.218597 0.601211 0.617481 0.076939 0.782813
0.844722 1.047714 0.494600 0.617481 0.076939 0.782813
0.281748 0.435191 0.998874 0.617481 0.076939 0.782813
-0.015370 1.927085 -0.157795 0.450849 0.367008 0.813659
-0.076914 2.346303 -0.312786 0.450849 0.367008 0.813659
-0.669113 1.792139 0.265312 0.450849 0.367008 0.813659
0.131030 -0.098298 0.284962 0.014602 -0.999737 0.017696
-0.381588 -0.105846 0.281512 0.014602 -0.999737 0.017696
-0.518395 -0.118647 -0.328839 0.014602 -0.999737 0.017696
-0.646160 1.621667 0.062460 0.509595 -0.629434 0.586623
-0.015370 1.927085 -0.157795 0.509595 -0.629434 0.586623
-0.669113 1.792139 0.265312 0.509595 -0.629434 0.586623
-0.932970 1.766308 -0.757742 0.995416 -0.070828 -0.064273
-0.873760 1.801874 0.120062 0.995416 -0.070828 -0.064273
-0.902238 1.584606 -0.081562 0.995416 -0.070828 -0.064273
-0.412202 0.180792 0.668273 -0.107375 0.654793 0.748142
-0.840051 -0.054613 0.812900 -0.107375 0.654793 0.748142
-0.365711 -0.073012 0.897081 -0.107375 0.654793 0.748142
-1.134994 0.424232 0.206499 -0.939354 -0.209850 -0.271251
-1.320101 0.965990 0.428411 -0.939354 -0.209850 -0.271251
-1.066495 0.652379 -0.207215 -0.939354 -0.209850 -0.271251
0.410356 -0.064684 0.766303 0.628954 -0.712786 0.310408
0.602797 -0.127378 0.232412 0.628954 -0.712786 0.310408
0.812873 0.218597 0.601211 0.628954 -0.712786 0.310408
0.511142 0.156832 -0.349812 0.558013 -0.707716 -0.433312
0.789374 0.206554 -0.072718 0.558013 -0.707716 -0.433312
0.602797 -0.127378 0.232412 0.558013 -0.707716 -0.433312
-0.381588 -0.105846 0.281512 -0.048346 -0.997346 0.054445
-0.365711 -0.073012 0.897081 -0.048346 -0.997346 0.054445
-0.840051 -0.054613 0.812900 -0.048346 -0.997346 0.054445
-0.840051 -0.054613 0.812900 -0.784093 0.619284 -0.041053
-0.643231 0.161951 0.320593 -0.784093 0.619284 -0.041053
-0.869887 -0.120149 0.394137 -0.784093 0.619284 -0.041053
-0.873760 1.801874 0.120062 0.957056 -0.285016 -0.053007
-0.932970 1.766308 -0.757742 0.957056 -0.285016 -0.053007
-0.828463 2.147059 -0.918124 0.957056 -0.285016 -0.053007
-0.824055 1.801229 0.592604 0.835520 -0.370417 0.405830
-0.646160 1.621667 0.062460 0.835520 -0.370417 0.405830
-0.669113 1.792139 0.265312 0.835520 -0.370417 0.405830
-0.755956 1.267586 -0.167960 0.855657 0.068502 -0.512990
-0.646160 1.621667 0.062460 0.855657 0.068502 -0.512990
-0.457391 1.362616 0.342730 0.855657 0.068502 -0.512990
0.286571 1.467885 0.123521 -0.093153 0.983343 0.156074
-0.457391 1.362616 0.342730 -0.093153 0.983343 0.156074
0.268242 1.394231 0.576633 -0.093153 0.983343 0.156074
-0.828463 2.147059 -0.918124 0.402683 0.863183 0.304568
-1.071250 2.210608 -0.777231 0.402683 0.863183 0.304568
-0.873760 1.801874 0.120062 0.402683 0.863183 0.304568
-1.078826 1.758019 0.007845 -0.221959 0.974744 0.024676
-0.824055 1.801229 0.592604 -0.221959 0.974744 0.024676
-0.873760 1.801874 0.120062 -0.221959 0.974744 0.024676
-1.320101 0.965990 0.428411 -0.997598 0.035715 -0.059352
-1.289846 1.751217 0.392383 -0.997598 0.035715 -0.059352
-1.285395 1.419454 0.117938 -0.997598 0.035715 -0.059352
-0.873760 1.801874 0.120062 0.050293 0.998727 -0.003929
-0.824055 1.801229 0.592604 0.050293 0.998727 -0.003929
-0.669113 1.792139 0.265312 0.050293 0.998727 -0.003929
-0.646160 1.621667 0.062460 0.780261 0.623398 0.050677
-0.824055 1.801229 0.592604 0.780261 0.623398 0.050677
-0.457391 1.362616 0.342730 0.780261 0.623398 0.050677
0.714760 0.903581 -0.220781 0.685413 0.679601 -0.261442
0.286571 1.467885 0.123521 0.685413 0.679601 -0.261442
0.844722 1.047714 0.494600 0.685413 0.679601 -0.261442
0.286571 1.467885 0.123521 0.525115 0.836387 0.157197
0.268242 1.394231 0.576633 0.525115 0.836387 0.157197
0.844722 1.047714 0.494600 0.525115 0.836387 0.157197
-0.646160 1.621667 0.062460 -0.372296 -0.179118 -0.910666
-0.873760 1.801874 0.120062 -0.372296 -0.179118 -0.910666
-0.076914 2.346303 -0.312786 -0.372296 -0.179118 -0.910666
-1.078826 1.758019 0.007845 -0.415783 0.789642 0.451209
-0.873760 1.801874 0.120062 -0.415783 0.789642 0.451209
-1.071250 2.210608 -0.777231 -0.415783 0.789642 0.451209
-0.377706 0.866879 0.766086 -0.762467 -0.226110 0.606233
-0.093929 0.127631 0.847276 -0.762467 -0.226110 0.606233
-0.178509 0.788219 0.987281 -0.762467 -0.226110 0.606233
-0.377706 0.866879 0.766086 -0.500195 -0.097515 0.860405
-0.412202 0.180792 0.668273 -0.500195 -0.097515 0.860405
-0.093929 0.127631 0.847276 -0.500195 -0.097515 0.860405
-1.289846 1.751217 0.392383 -0.355382 0.659994 0.661901
-1.029738 1.297282 0.984665 -0.355382 0.659994 0.661901
-0.824055 1.801229 0.592604 -0.355382 0.659994 0.661901
-0.769638 0.565635 0.785729 -0.635445 -0.210713 0.742839
-1.003263 1.027801 0.716977 -0.635445 -0.210713 0.742839
-1.320101 0.965990 0.428411 -0.635445 -0.210713 0.742839
-0.365711 -0.073012 0.897081 -0.311593 0.604131 0.733441
-0.093929 0.127631 0.847276 -0.311593 0.604131 0.733441
-0.412202 0.180792 0.668273 -0.311593 0.604131 0.733441
-0.643231 0.161951 0.320593 -0.592118 -0.681302 0.430376
-0.412202 0.180792 0.668273 -0.592118 -0.681302 0.430376
-0.769638 0.565635 0.785729 -0.592118 -0.681302 0.430376
-0.377706 0.866879 0.766086 -0.176675 0.866330 0.467181
-0.178509 0.788219 0.987281 -0.176675 0.866330 0.467181
0.321551 0.998471 0.786503 -0.176675 0.866330 0.467181
-1.029738 1.297282 0.984665 -0.665063 0.422431 0.615828
-1.289846 1.751217 0.392383 -0.665063 0.422431 0.615828
-1.309633 1.182267 0.761288 -0.665063 0.422431 0.615828
0.286571 1.467885 0.123521 0.099999 0.572427 -0.813835
0.714760 0.903581 -0.220781 0.099999 0.572427 -0.813835
-0.344682 0.898884 -0.354262 0.099999 0.572427 -0.813835
-0.932970 1.766308 -0.757742 -0.936643 -0.299481 -0.181688
-1.078826 1.758019 0.007845 -0.936643 -0.299481 -0.181688
-1.071250 2.210608 -0.777231 -0.936643 -0.299481 -0.181688
-0.230434 0.730892 -0.616937 -0.726541 -0.265296 -0.633843
-0.145634 0.101961 -0.450899 -0.726541 -0.265296 -0.633843
-0.501117 0.224015 -0.094512 -0.726541 -0.265296 -0.633843
-0.932970 1.766308 -0.757742 -0.729839 -0.667786 -0.146276
-0.902238 1.584606 -0.081562 -0.729839 -0.667786 -0.146276
-1.078826 1.758019 0.007845 -0.729839 -0.667786 -0.146276
-0.230434 0.730892 -0.616937 -0.904732 0.046753 -0.423407
-0.501117 0.224015 -0.094512 -0.904732 0.046753 -0.423407
-0.344682 0.898884 -0.354262 -0.904732 0.046753 -0.423407
-1.309633 1.182267 0.761288 -0.999228 0.038787 0.006223
-1.289846 1.751217 0.392383 -0.999228 0.038787 0.006223
-1.320101 0.965990 0.428411 -0.999228 0.038787 0.006223
-0.869887 -0.120149 0.394137 -0.645461 0.630855 0.430583
-0.643231 0.161951 0.320593 -0.645461 0.630855 0.430583
-1.048749 -0.083578 0.072433 -0.645461 0.630855 0.430583
-1.320101 0.965990 0.428411 -0.756488 0.414152 -0.506166
-0.755956 1.267586 -0.167960 -0.756488 0.414152 -0.506166
-1.066495 0.652379 -0.207215 -0.756488 0.414152 -0.506166
-0.344682 0.898884 -0.354262 0.061562 0.852786 -0.518620
0.714760 0.903581 -0.220781 0.061562 0.852786 -0.518620
-0.230434 0.730892 -0.616937 0.061562 0.852786 -0.518620
-0.501117 0.224015 -0.094512 -0.464464 -0.740728 -0.485382
-1.134994 0.424232 0.206499 -0.464464 -0.740728 -0.485382
-1.066495 0.652379 -0.207215 -0.464464 -0.740728 -0.485382
-1.285395 1.419454 0.117938 -0.458737 -0.009037 -0.888526
-1.078826 1.758019 0.007845 -0.458737 -0.009037 -0.888526
-0.902238 1.584606 -0.081562 -0.458737 -0.009037 -0.888526
-0.643231 0.161951 0.320593 -0.498851 0.865701 -0.041351
-0.501117 0.224015 -0.094512 -0.498851 0.865701 -0.041351
-1.048749 -0.083578 0.072433 -0.498851 0.865701 -0.041351
-0.501117 0.224015 -0.094512 -0.521939 0.499265 -0.691602
-0.145634 0.101961 -0.450899 -0.521939 0.499265 -0.691602
-0.518395 -0.118647 -0.328839 -0.521939 0.499265 -0.691602
0.410356 -0.064684 0.766303 0.020456 -0.998117 0.057831
-0.365711 -0.073012 0.897081 0.020456 -0.998117 0.057831
0.131030 -0.098298 0.284962 0.020456 -0.998117 0.057831
-0.646160 1.621667 0.062460 0.312605 0.623797 -0.716349
-0.902238 1.584606 -0.081562 0.312605 0.623797 -0.716349
-0.873760 1.801874 0.120062 0.312605 0.623797 -0.716349
-0.457391 1.362616 0.342730 -0.164555 0.982556 -0.086632
0.286571 1.467885 0.123521 -0.164555 0.982556 -0.086632
-0.755956 1.267586 -0.167960 -0.164555 0.982556 -0.086632
-0.646160 1.621667 0.062460 0.401740 0.408711 -0.819488
-0.755956 1.267586 -0.167960 0.401740 0.408711 -0.819488
-0.902238 1.584606 -0.081562 0.401740 0.408711 -0.819488
-0.755956 1.267586 -0.167960 0.123735 0.554011 -0.823263
0.286571 1.467885 0.123521 0.123735 0.554011 -0.823263
-0.344682 0.898884 -0.354262 0.123735 0.554011 -0.823263
-1.285395 1.419454 0.117938 -0.469731 0.023760 -0.882490
-0.902238 1.584606 -0.081562 -0.469731 0.023760 -0.882490
-0.755956 1.267586 -0.167960 -0.469731 0.023760 -0.882490
-0.518395 -0.118647 -0.328839 -0.498805 0.506237 -0.703504
-1.048749 -0.083578 0.072433 -0.498805 0.506237 -0.703504
-0.501117 0.224015 -0.094512 -0.498805 0.506237 -0.703504
0.602797 -0.127378 0.232412 0.243935 -0.724923 -0.644192
0.789374 0.206554 -0.072718 0.243935 -0.724923 -0.644192
1.050634 0.052143 0.199974 0.243935 -0.724923 -0.644192
0.789374 0.206554 -0.072718 0.710281 -0.072694 -0.700154
0.511142 0.156832 -0.349812 0.710281 -0.072694 -0.700154
0.714760 0.903581 -0.220781 0.710281 -0.072694 -0.700154
-1.320101 0.965990 0.428411 -0.520639 -0.454847 -0.722530
-1.285395 1.419454 0.117938 -0.520639 -0.454847 -0.722530
-0.755956 1.267586 -0.167960 -0.520639 -0.454847 -0.722530
0.511142 0.156832 -0.349812 0.377058 0.056921 -0.924439
-0.230434 0.730892 -0.616937 0.377058 0.056921 -0.924439
0.714760 0.903581 -0.220781 0.377058 0.056921 -0.924439
0.511142 0.156832 -0.349812 0.166813 -0.230592 -0.958645
-0.145634 0.101961 -0.450899 0.166813 -0.230592 -0.958645
-0.230434 0.730892 -0.616937 0.166813 -0.230592 -0.958645
-0.501117 0.224015 -0.094512 -0.073492 -0.343347 -0.936329
-1.066495 0.652379 -0.207215 -0.073492 -0.343347 -0.936329
-0.344682 0.898884 -0.354262 -0.073492 -0.343347 -0.936329
-1.066495 0.652379 -0.207215 -0.258072 0.190701 -0.947118
-0.755956 1.267586 -0.167960 -0.258072 0.190701 -0.947118
-0.344682 0.898884 -0.354262 -0.258072 0.190701 -0.947118
0.348038 -0.129874 -0.242669 0.086050 -0.391345 -0.916212
-0.518395 -0.118647 -0.328839 0.086050 -0.391345 -0.916212
0.511142 0.156832 -0.349812 0.086050 -0.391345 -0.916212
0.511142 0.156832 -0.349812 0.166828 -0.677984 -0.715895
-0.518395 -0.118647 -0.328839 0.166828 -0.677984 -0.715895
-0.145634 0.101961 -0.450899 0.166828 -0.677984 -0.715895
-1.071250 2.210608 -0.777231 -0.530527 -0.201235 -0.823435
-0.828463 2.147059 -0.918124 -0.530527 -0.201235 -0.823435
-0.932970 1.766308 -0.757742 -0.530527 -0.201235 -0.823435
-0.646160 1.621667 0.062460 -0.146271 -0.361863 -0.920685
-0.076914 2.346303 -0.312786 -0.146271 -0.361863 -0.920685
-0.015370 1.927085 -0.157795 -0.146271 -0.361863 -0.920685
0.410356 -0.064684 0.766303 -0.050282 -0.993858 0.098584
0.131030 -0.098298 0.284962 -0.050282 -0.993858 0.098584
0.602797 -0.127378 0.232412 -0.050282 -0.993858 0.098584
-1.003263 1.027801 0.716977 -0.322254 -0.789154 0.522865
-1.309633 1.182267 0.761288 -0.322254 -0.789154 0.522865
-1.320101 0.965990 0.428411 -0.322254 -0.789154 0.522865
1.050634 0.052143 0.199974 0.348679 -0.774436 0.527893
0.812873 0.218597 0.601211 0.348679 -0.774436 0.527893
0.602797 -0.127378 0.232412 0.348679 -0.774436 0.527893
0.348038 -0.129874 -0.242669 -0.018138 -0.998467 0.052294
0.131030 -0.098298 0.284962 -0.018138 -0.998467 0.052294
-0.518395 -0.118647 -0.328839 -0.018138 -0.998467 0.052294
-1.003263 1.027801 0.716977 -0.252565 -0.694271 0.673942
-1.029738 1.297282 0.984665 -0.252565 -0.694271 0.673942
-1.309633 1.182267 0.761288 -0.252565 -0.694271 0.673942
-0.769638 0.565635 0.785729 -0.694345 -0.462933 0.550979
-1.320101 0.965990 0.428411 -0.694345 -0.462933 0.550979
-1.134994 0.424232 0.206499 -0.694345 -0.462933 0.550979
-0.501117 0.224015 -0.094512 -0.403920 -0.874347 -0.269011
-0.643231 0.161951 0.320593 -0.403920 -0.874347 -0.269011
-1.134994 0.424232 0.206499 -0.403920 -0.874347 -0.269011
-0.518395 -0.118647 -0.328839 -0.042908 -0.998611 0.030563
-0.381588 -0.105846 0.281512 -0.042908 -0.998611 0.030563
-1.048749 -0.083578 0.072433 -0.042908 -0.998611 0.030563
-0.869887 -0.120149 0.394137 0.002705 -0.993427 -0.114437
-1.048749 -0.083578 0.072433 0.002705 -0.993427 -0.114437
-0.381588 -0.105846 0.281512 0.002705 -0.993427 -0.114437
-0.643231 0.161951 0.320593 -0.496184 -0.717932 0.488237
-0.769638 0.565635 0.785729 -0.496184 -0.717932 0.488237
-1.134994 0.424232 0.206499 -0.496184 -0.717932 0.488237
0.348038 -0.129874 -0.242669 -0.057482 -0.997695 0.036066
0.602797 -0.127378 0.232412 -0.057482 -0.997695 0.036066
0.131030 -0.098298 0.284962 -0.057482 -0.997695 0.036066
0.410356 -0.064684 0.766303 0.165929 0.019978 0.985935
-0.093929 0.127631 0.847276 0.165929 0.019978 0.985935
-0.365711 -0.073012 0.897081 0.165929 0.019978 0.985935
0.131030 -0.098298 0.284962 0.014346 -0.998497 0.052889
-0.365711 -0.073012 0.897081 0.014346 -0.998497 0.052889
-0.381588 -0.105846 0.281512 0.014346 -0.998497 0.052889
-0.840051 -0.054613 0.812900 0.063474 -0.986663 0.149889
-0.869887 -0.120149 0.394137 0.063474 -0.986663 0.149889
-0.381588 -0.105846 0.281512 0.063474 -0.986663 0.149889
3 0 1 2
3 3 4 5
3 6 7 8
3 9 10 11
3 12 13 14
3 15 16 17
3 18 19 20
3 21 22 23
3 24 25 26
3 27 28 29
3 30 31 32
3 33 34 35
3 36 37 38
3 39 40 41
3 42 43 44
3 45 46 47
3 48 49 50
3 51 52 53
3 54 55 56
3 57 58 59
3 60 61 62
3 63 64 65
3 66 67 68
3 69 70 71
3 72 73 74
3 75 76 77
3 78 79 80
3 81 82 83
3 84 85 86
3 87 88 89
3 90 91 92
3 93 94 95
3 96 97 98
3 99 100 101
3 102 103 104
3 105 106 107
3 108 109 110
3 111 112 113
3 114 115 116
3 117 118 119
3 120 121 122
3 123 124 125
3 126 127 128
3 129 130 131
3 132 133 134
3 135 136 137
3 138 139 140
3 141 142 143
3 144 145 146
3 147 148 149
3 150 151 152
3 153 154 155
3 156 157 158
3 159 160 161
3 162 163 164
3 165 166 167
3 168 169 170
3 171 172 173
3 174 175 176
3 177 178 179
3 180 181 182
3 183 184 185
3 186 187 188
3 189 190 191
3 192 193 194
3 195 196 197
3 198 199 200
3 201 202 203
3 204 205 206
3 207 208 209
3 210 211 212
3 213 214 215
3 216 217 218
3 219 220 221
3 222 223 224
3 225 226 227
3 228 229 230
3 231 232 233
3 234 235 236
3 237 238 239
3 240 241 242
3 243 244 245
3 246 247 248
3 249 250 251
3 252 253 254
3 255 256 257
3 258 259 260
3 261 262 263
3 264 265 266
3 267 268 269
3 270 271 272
3 273 274 275
3 276 277 278
3 279 280 281
3 282 283 284
3 285 286 287
3 288 289 290
3 291 292 293
3 294 295 296
3 297 298 299
