ply
format ascii 1.0
comment Created by Blender 2.93.1 - www.blender.org
element vertex 594
property float x
property float y
property float z
property float nx
property float ny
property float nz
property float s
property float t
element face 198
property list uchar uint vertex_indices
end_header
0.466863 0.195096 0.766162 0.493650 -0.615174 0.614712 0.879995 0.591261
0.343966 -0.034709 0.634877 0.493650 -0.615174 0.614712 0.801179 0.571419
0.610739 0.131675 0.587152 0.493650 -0.615174 0.614712 0.883898 0.528665
-0.343966 -0.034709 0.634877 -0.493650 -0.615174 0.614712 0.797883 0.836640
-0.466863 0.195096 0.766162 -0.493650 -0.615174 0.614712 0.877502 0.820316
-0.610739 0.131675 0.587152 -0.493650 -0.615174 0.614712 0.878623 0.883023
-0.173792 0.157527 0.756855 -0.011318 0.133534 0.990979 0.467732 0.274835
0.095211 -0.121654 0.797547 -0.011318 0.133534 0.990979 0.539056 0.192686
0.193260 0.146196 0.762574 -0.011318 0.133534 0.990979 0.575963 0.274870
0.095211 -0.121654 0.797547 0.218103 0.047437 0.974772 0.539056 0.192686
0.504128 0.085754 0.695960 0.218103 0.047437 0.974772 0.638102 0.266808
0.193260 0.146196 0.762574 0.218103 0.047437 0.974772 0.575963 0.274870
-0.074802 0.165198 0.669587 0.502866 -0.162356 0.848980 0.829103 0.725473
-0.241371 0.322266 0.798285 0.502866 -0.162356 0.848980 0.883804 0.765642
-0.307136 0.131340 0.800727 0.502866 -0.162356 0.848980 0.854945 0.794925
-0.396908 0.367216 0.797143 0.257533 0.900060 0.351523 0.902626 0.794842
-0.241371 0.322266 0.798285 0.257533 0.900060 0.351523 0.883804 0.765642
-0.507824 0.475637 0.600793 0.257533 0.900060 0.351523 0.960966 0.819641
0.466863 0.195096 0.766162 0.792478 0.219677 0.568964 0.879995 0.591261
0.507824 0.475637 0.600793 0.792478 0.219677 0.568964 0.963346 0.595639
0.396908 0.367216 0.797143 0.792478 0.219677 0.568964 0.903963 0.617825
-0.466863 0.195096 0.766162 -0.796993 0.216096 0.564007 0.877502 0.820316
-0.507824 0.475637 0.600793 -0.796993 0.216096 0.564007 0.960966 0.819641
-0.610739 0.131675 0.587152 -0.796993 0.216096 0.564007 0.878623 0.883023
0.307136 0.131340 0.800727 0.240014 -0.076643 0.967739 0.856334 0.615626
0.466863 0.195096 0.766162 0.240014 -0.076643 0.967739 0.879995 0.591261
0.396908 0.367216 0.797143 0.240014 -0.076643 0.967739 0.903963 0.617825
-0.396908 0.367216 0.797143 -0.240014 -0.076643 0.967739 0.902626 0.794842
-0.466863 0.195096 0.766162 -0.240014 -0.076643 0.967739 0.877502 0.820316
-0.307136 0.131340 0.800727 -0.240014 -0.076643 0.967739 0.854945 0.794925
0.396908 0.367216 0.797143 0.003317 0.013931 0.999897 0.903963 0.617825
0.241371 0.322266 0.798285 0.003317 0.013931 0.999897 0.883864 0.646161
0.307136 0.131340 0.800727 0.003317 0.013931 0.999897 0.856334 0.615626
-0.307136 0.131340 0.800727 -0.003317 0.013931 0.999897 0.854945 0.794925
-0.241371 0.322266 0.798285 -0.003317 0.013931 0.999897 0.883804 0.765642
-0.396908 0.367216 0.797143 -0.003317 0.013931 0.999897 0.902626 0.794842
0.220840 -0.184282 0.531800 0.491495 -0.766705 0.413033 0.612025 0.160013
0.504128 0.085754 0.695960 0.491495 -0.766705 0.413033 0.638102 0.266808
0.095211 -0.121654 0.797547 0.491495 -0.766705 0.413033 0.539056 0.192686
-0.504128 0.085754 0.695960 -0.470921 -0.763104 0.442612 0.400418 0.269745
-0.220840 -0.184282 0.531800 -0.470921 -0.763104 0.442612 0.425409 0.160506
-0.081894 -0.120969 0.788790 -0.470921 -0.763104 0.442612 0.501621 0.194057
0.804609 0.402104 0.630726 0.640774 -0.486094 0.594240 0.697918 0.313719
0.504128 0.085754 0.695960 0.640774 -0.486094 0.594240 0.638102 0.266808
0.783688 0.113242 0.416992 0.640774 -0.486094 0.594240 0.718433 0.255948
-0.249584 0.772373 0.701809 -0.517625 0.674962 0.525824 0.422324 0.408474
-0.804609 0.402104 0.630726 -0.517625 0.674962 0.525824 0.340533 0.320184
-0.252177 0.653553 0.851777 -0.517625 0.674962 0.525824 0.433429 0.380311
0.000000 0.371412 0.810030 -0.697076 0.556071 0.452625 0.518605 0.362197
0.252177 0.653553 0.851777 -0.697076 0.556071 0.452625 0.609625 0.376566
0.249584 0.772373 0.701809 -0.697076 0.556071 0.452625 0.621877 0.403869
0.323651 0.449537 0.756688 0.151397 0.046946 0.987358 0.614052 0.336247
0.000000 0.371412 0.810030 0.151397 0.046946 0.987358 0.518605 0.362197
0.175863 0.363842 0.783424 0.151397 0.046946 0.987358 0.572932 0.327500
-0.323651 0.449537 0.756688 -0.232727 -0.342683 0.910168 0.427245 0.339672
0.000000 0.371412 0.810030 -0.232727 -0.342683 0.910168 0.518605 0.362197
-0.252177 0.653553 0.851777 -0.232727 -0.342683 0.910168 0.433429 0.380311
0.804609 0.402104 0.630726 0.244040 -0.089742 0.965604 0.697918 0.313719
0.323651 0.449537 0.756688 0.244040 -0.089742 0.965604 0.614052 0.336247
0.568398 0.356240 0.686161 0.244040 -0.089742 0.965604 0.653977 0.307523
-0.804609 0.402104 0.630726 -0.204143 -0.353893 0.912735 0.340533 0.320184
-0.323651 0.449537 0.756688 -0.204143 -0.353893 0.912735 0.427245 0.339672
-0.252177 0.653553 0.851777 -0.204143 -0.353893 0.912735 0.433429 0.380311
-0.504128 0.085754 0.695960 -0.232098 -0.019921 0.972488 0.400418 0.269745
-0.568398 0.356240 0.686161 -0.232098 -0.019921 0.972488 0.385506 0.311933
-0.804609 0.402104 0.630726 -0.232098 -0.019921 0.972488 0.340533 0.320184
0.466863 0.195096 0.766162 0.391584 -0.605317 0.693003 0.879995 0.591261
0.307136 0.131340 0.800727 0.391584 -0.605317 0.693003 0.856334 0.615626
0.343966 -0.034709 0.634877 0.391584 -0.605317 0.693003 0.801179 0.571419
0.175863 0.363842 0.783424 -0.018493 -0.096807 0.995131 0.572932 0.327500
-0.173792 0.157527 0.756855 -0.018493 -0.096807 0.995131 0.467732 0.274835
0.193260 0.146196 0.762574 -0.018493 -0.096807 0.995131 0.575963 0.274870
0.067787 -0.863069 0.682401 0.222714 -0.459143 0.859992 0.525123 0.073097
-0.052440 -0.906879 0.690146 0.222714 -0.459143 0.859992 0.513357 0.067295
0.360071 -0.927514 0.572301 0.222714 -0.459143 0.859992 0.550967 0.062144
0.067787 -0.863069 0.682401 0.253255 -0.374945 0.891784 0.525123 0.073097
0.360071 -0.927514 0.572301 0.253255 -0.374945 0.891784 0.550967 0.062144
0.099032 -0.731311 0.728924 0.253255 -0.374945 0.891784 0.529464 0.085624
0.108976 -0.299581 0.758003 0.474001 -0.070036 0.877735 0.537188 0.159850
0.099032 -0.731311 0.728924 0.474001 -0.070036 0.877735 0.529464 0.085624
0.360071 -0.927514 0.572301 0.474001 -0.070036 0.877735 0.550967 0.062144
-0.094390 -0.775152 0.702438 -0.375391 -0.129331 0.917799 0.513233 0.082469
-0.128537 -0.246903 0.762909 -0.375391 -0.129331 0.917799 0.492947 0.169871
-0.360071 -0.927514 0.572301 -0.375391 -0.129331 0.917799 0.486910 0.062083
0.095211 -0.121654 0.797547 0.910973 -0.021075 0.411927 0.539056 0.192686
0.079220 -0.225541 0.827598 0.910973 -0.021075 0.411927 0.529763 0.177033
0.108976 -0.299581 0.758003 0.910973 -0.021075 0.411927 0.537188 0.159850
-0.081894 -0.120969 0.788790 -0.048770 0.097887 0.994002 0.501621 0.194057
0.095211 -0.121654 0.797547 -0.048770 0.097887 0.994002 0.539056 0.192686
-0.173792 0.157527 0.756855 -0.048770 0.097887 0.994002 0.467732 0.274835
-0.052440 -0.906879 0.690146 0.087665 -0.064835 0.994038 0.513357 0.067295
0.067787 -0.863069 0.682401 0.087665 -0.064835 0.994038 0.525123 0.073097
-0.094390 -0.775152 0.702438 0.087665 -0.064835 0.994038 0.513233 0.082469
-0.094390 -0.775152 0.702438 -0.056865 -0.320398 0.945575 0.513233 0.082469
0.067787 -0.863069 0.682401 -0.056865 -0.320398 0.945575 0.525123 0.073097
0.099032 -0.731311 0.728924 -0.056865 -0.320398 0.945575 0.529464 0.085624
-0.343966 -0.034709 0.634877 -0.391584 -0.605317 0.693003 0.797883 0.836640
-0.307136 0.131340 0.800727 -0.391584 -0.605317 0.693003 0.854945 0.794925
-0.466863 0.195096 0.766162 -0.391584 -0.605317 0.693003 0.877502 0.820316
0.000000 0.371412 0.810030 -0.818732 0.552147 0.157516 0.518605 0.362197
0.249584 0.772373 0.701809 -0.818732 0.552147 0.157516 0.621877 0.403869
-0.000000 0.421263 0.635286 -0.818732 0.552147 0.157516 0.524627 0.433709
-0.249584 0.772373 0.701809 0.818732 0.552147 0.157516 0.422324 0.408474
0.000000 0.371412 0.810030 0.818732 0.552147 0.157516 0.518605 0.362197
-0.000000 0.421263 0.635286 0.818732 0.552147 0.157516 0.524627 0.433709
0.804609 0.402104 0.630726 0.471801 0.784487 -0.402472 0.697918 0.313719
0.462056 0.521838 0.462546 0.471801 0.784487 -0.402472 0.692106 0.388274
0.249584 0.772373 0.701809 0.471801 0.784487 -0.402472 0.621877 0.403869
-0.804609 0.402104 0.630726 -0.375437 0.920361 -0.109461 0.340533 0.320184
-0.462056 0.521838 0.462546 -0.375437 0.920361 -0.109461 0.350292 0.396229
-0.704473 0.404566 0.307972 -0.375437 0.920361 -0.109461 0.262025 0.315934
0.783688 0.113242 0.416992 0.944939 0.147652 -0.292044 0.718433 0.255948
0.704473 0.404566 0.307972 0.944939 0.147652 -0.292044 0.771517 0.305840
0.804609 0.402104 0.630726 0.944939 0.147652 -0.292044 0.697918 0.313719
0.000000 -0.487724 0.299484 -0.166578 -0.130339 -0.977376 0.391712 0.020395
-0.323265 -0.935812 0.414335 -0.166578 -0.130339 -0.977376 0.480458 0.052466
-0.204571 -0.405374 0.323368 -0.166578 -0.130339 -0.977376 0.390983 0.081009
0.360071 -0.927514 0.572301 0.044863 -0.988831 -0.142127 0.550967 0.062144
-0.323265 -0.935812 0.414335 0.044863 -0.988831 -0.142127 0.480458 0.052466
0.305719 -0.904663 0.396160 0.044863 -0.988831 -0.142127 0.559207 0.050412
0.360071 -0.927514 0.572301 0.949760 0.152565 -0.273276 0.550967 0.062144
0.305719 -0.904663 0.396160 0.949760 0.152565 -0.273276 0.559207 0.050412
0.204571 -0.405374 0.323368 0.949760 0.152565 -0.273276 0.646338 0.081597
-0.323265 -0.935812 0.414335 -0.956938 0.174322 -0.232124 0.480458 0.052466
-0.360071 -0.927514 0.572301 -0.956938 0.174322 -0.232124 0.486910 0.062083
-0.204571 -0.405374 0.323368 -0.956938 0.174322 -0.232124 0.390983 0.081009
-0.220840 -0.184282 0.531800 -0.198067 -0.655805 -0.728485 0.425409 0.160506
-0.577659 -0.086733 0.540999 -0.198067 -0.655805 -0.728485 0.369749 0.224966
-0.783688 0.113242 0.416992 -0.198067 -0.655805 -0.728485 0.316954 0.260471
0.416138 -0.056313 -0.564653 0.322409 -0.770140 -0.550396 0.857082 0.118753
0.000000 -0.382812 -0.351562 0.322409 -0.770140 -0.550396 0.805584 0.010786
0.000000 -0.078116 -0.777908 0.322409 -0.770140 -0.550396 0.918961 0.058338
-0.416138 -0.056313 -0.564653 -0.439952 -0.811601 -0.384377 0.173591 0.111895
0.000000 -0.382812 -0.351562 -0.439952 -0.811601 -0.384377 0.232648 0.003484
-0.380830 -0.247215 -0.201982 -0.439952 -0.811601 -0.384377 0.252960 0.102815
0.000000 -0.382812 -0.351562 0.384087 -0.911538 -0.146888 0.805584 0.010786
0.204571 -0.405374 0.323368 0.384087 -0.911538 -0.146888 0.646338 0.081597
0.000000 -0.487724 0.299484 0.384087 -0.911538 -0.146888 0.646555 0.021152
-0.204571 -0.405374 0.323368 -0.384087 -0.911538 -0.146888 0.390983 0.081009
0.000000 -0.382812 -0.351562 -0.384087 -0.911538 -0.146888 0.232648 0.003484
0.000000 -0.487724 0.299484 -0.384087 -0.911538 -0.146888 0.391712 0.020395
0.783688 0.113242 0.416992 0.926394 -0.375675 -0.025743 0.718433 0.255948
0.691251 -0.076190 -0.145051 0.926394 -0.375675 -0.025743 0.786748 0.169373
0.853487 0.326571 -0.184387 0.926394 -0.375675 -0.025743 0.825641 0.213419
-0.691251 -0.076190 -0.145051 -0.926394 -0.375675 -0.025743 0.243899 0.168309
-0.783688 0.113242 0.416992 -0.926394 -0.375675 -0.025743 0.316954 0.260471
-0.853487 0.326571 -0.184387 -0.926394 -0.375675 -0.025743 0.200600 0.217602
0.460938 0.437500 -0.703125 0.270070 -0.102578 -0.957361 0.909112 0.183261
0.000000 -0.078116 -0.777908 0.270070 -0.102578 -0.957361 0.918961 0.058338
-0.108643 0.491041 -0.869539 0.270070 -0.102578 -0.957361 0.994525 0.167705
-0.108643 0.491041 -0.869539 -0.453656 -0.225405 -0.862200 0.033476 0.160709
0.000000 -0.078116 -0.777908 -0.453656 -0.225405 -0.862200 0.110477 0.041181
-0.416138 -0.056313 -0.564653 -0.453656 -0.225405 -0.862200 0.173591 0.111895
-0.453125 0.867188 -0.382812 -0.120477 0.988454 -0.091891 0.098965 0.266968
-0.000000 0.975406 0.187185 -0.120477 0.988454 -0.091891 0.087074 0.412341
0.182637 0.934309 -0.494337 -0.120477 0.988454 -0.091891 0.000144 0.259113
0.182637 0.934309 -0.494337 0.285626 0.502853 -0.815817 0.967155 0.256639
0.460938 0.437500 -0.703125 0.285626 0.502853 -0.815817 0.909112 0.183261
-0.108643 0.491041 -0.869539 0.285626 0.502853 -0.815817 0.994525 0.167705
0.460938 0.437500 -0.703125 0.652986 0.280617 -0.703465 0.909112 0.183261
0.781262 0.611360 -0.336432 0.652986 0.280617 -0.703465 0.861062 0.236078
0.822768 0.331336 -0.409608 0.652986 0.280617 -0.703465 0.838848 0.201675
-0.781262 0.611360 -0.336432 -0.563239 0.286060 -0.775198 0.160829 0.240518
-0.108643 0.491041 -0.869539 -0.563239 0.286060 -0.775198 0.033476 0.160709
-0.822768 0.331336 -0.409608 -0.563239 0.286060 -0.775198 0.174724 0.195301
0.468039 0.900587 0.151110 0.730753 0.679402 0.066431 0.872094 0.327733
0.778416 0.571313 0.104450 0.730753 0.679402 0.066431 0.818812 0.278316
0.781262 0.611360 -0.336432 0.730753 0.679402 0.066431 0.861062 0.236078
-0.778416 0.571313 0.104450 -0.730753 0.679402 0.066431 0.209152 0.287410
-0.468039 0.900587 0.151110 -0.730753 0.679402 0.066431 0.149702 0.344631
-0.781262 0.611360 -0.336432 -0.730753 0.679402 0.066431 0.160829 0.240518
0.468039 0.900587 0.151110 0.611677 0.488380 0.622363 0.872094 0.327733
0.704473 0.404566 0.307972 0.611677 0.488380 0.622363 0.771517 0.305840
0.778416 0.571313 0.104450 0.611677 0.488380 0.622363 0.818812 0.278316
-0.704473 0.404566 0.307972 -0.611677 0.488380 0.622363 0.262025 0.315934
-0.468039 0.900587 0.151110 -0.611677 0.488380 0.622363 0.149702 0.344631
-0.778416 0.571313 0.104450 -0.611677 0.488380 0.622363 0.209152 0.287410
0.462056 0.521838 0.462546 0.152044 0.621471 0.768542 0.788548 0.367747
-0.000000 0.975406 0.187185 0.152044 0.621471 0.768542 0.927530 0.384575
-0.000000 0.421263 0.635286 0.152044 0.621471 0.768542 0.819199 0.445898
-0.462056 0.521838 0.462546 -0.158875 0.625565 0.763824 0.246525 0.386436
-0.000000 0.975406 0.187185 -0.158875 0.625565 0.763824 0.087074 0.412341
-0.468039 0.900587 0.151110 -0.158875 0.625565 0.763824 0.149702 0.344631
-0.000000 0.421263 0.635286 -0.396856 0.435219 -0.808140 0.819199 0.445898
0.249584 0.772373 0.701809 -0.396856 0.435219 -0.808140 0.763104 0.431376
0.462056 0.521838 0.462546 -0.396856 0.435219 -0.808140 0.788548 0.367747
-0.249584 0.772373 0.701809 0.396856 0.435219 -0.808140 0.279233 0.458048
-0.000000 0.421263 0.635286 0.396856 0.435219 -0.808140 0.205473 0.487752
-0.462056 0.521838 0.462546 0.396856 0.435219 -0.808140 0.246525 0.386436
-0.783688 0.113242 0.416992 -0.915826 0.333011 0.224425 0.316954 0.260471
-0.704473 0.404566 0.307972 -0.915826 0.333011 0.224425 0.262025 0.315934
-0.853487 0.326571 -0.184387 -0.915826 0.333011 0.224425 0.200600 0.217602
0.853487 0.326571 -0.184387 0.952816 -0.059117 0.297737 0.825641 0.213419
0.778416 0.571313 0.104450 0.952816 -0.059117 0.297737 0.818812 0.278316
0.704473 0.404566 0.307972 0.952816 -0.059117 0.297737 0.771517 0.305840
-0.778416 0.571313 0.104450 -0.952816 -0.059117 0.297737 0.209152 0.287410
-0.853487 0.326571 -0.184387 -0.952816 -0.059117 0.297737 0.200600 0.217602
-0.704473 0.404566 0.307972 -0.952816 -0.059117 0.297737 0.262025 0.315934
0.853487 0.326571 -0.184387 0.964959 0.260691 0.029909 0.825641 0.213419
0.781262 0.611360 -0.336432 0.964959 0.260691 0.029909 0.861062 0.236078
0.778416 0.571313 0.104450 0.964959 0.260691 0.029909 0.818812 0.278316
-0.781262 0.611360 -0.336432 -0.964959 0.260691 0.029909 0.160829 0.240518
-0.853487 0.326571 -0.184387 -0.964959 0.260691 0.029909 0.200600 0.217602
-0.778416 0.571313 0.104450 -0.964959 0.260691 0.029909 0.209152 0.287410
0.781262 0.611360 -0.336432 0.975436 0.178363 -0.129272 0.861062 0.236078
0.853487 0.326571 -0.184387 0.975436 0.178363 -0.129272 0.825641 0.213419
0.822768 0.331336 -0.409608 0.975436 0.178363 -0.129272 0.838848 0.201675
0.783688 0.113242 0.416992 0.439154 -0.870743 0.221250 0.718433 0.255948
0.380830 -0.247215 -0.201982 0.439154 -0.870743 0.221250 0.780967 0.105926
0.691251 -0.076190 -0.145051 0.439154 -0.870743 0.221250 0.786748 0.169373
-0.380830 -0.247215 -0.201982 -0.439154 -0.870743 0.221250 0.252960 0.102815
-0.783688 0.113242 0.416992 -0.439154 -0.870743 0.221250 0.316954 0.260471
-0.691251 -0.076190 -0.145051 -0.439154 -0.870743 0.221250 0.243899 0.168309
0.783688 0.113242 0.416992 0.667160 -0.744914 -0.000424 0.718433 0.255948
0.204571 -0.405374 0.323368 0.667160 -0.744914 -0.000424 0.646338 0.081597
0.380830 -0.247215 -0.201982 0.667160 -0.744914 -0.000424 0.780967 0.105926
-0.204571 -0.405374 0.323368 -0.667160 -0.744914 -0.000424 0.390983 0.081009
-0.783688 0.113242 0.416992 -0.667160 -0.744914 -0.000424 0.316954 0.260471
-0.380830 -0.247215 -0.201982 -0.667160 -0.744914 -0.000424 0.252960 0.102815
-0.742935 -0.096205 -0.329129 -0.545308 -0.252294 -0.799367 0.196622 0.155241
-0.822768 0.331336 -0.409608 -0.545308 -0.252294 -0.799367 0.174724 0.195301
-0.416138 -0.056313 -0.564653 -0.545308 -0.252294 -0.799367 0.173591 0.111895
0.822768 0.331336 -0.409608 0.557324 -0.270670 -0.784938 0.838848 0.201675
0.416138 -0.056313 -0.564653 0.557324 -0.270670 -0.784938 0.857082 0.118753
0.460938 0.437500 -0.703125 0.557324 -0.270670 -0.784938 0.909112 0.183261
0.380830 -0.247215 -0.201982 0.439914 -0.871119 0.218236 0.780967 0.105926
0.742935 -0.096205 -0.329129 0.439914 -0.871119 0.218236 0.837382 0.156361
0.691251 -0.076190 -0.145051 0.439914 -0.871119 0.218236 0.786748 0.169373
-0.380830 -0.247215 -0.201982 -0.209995 -0.873443 -0.439317 0.252960 0.102815
-0.742935 -0.096205 -0.329129 -0.209995 -0.873443 -0.439317 0.196622 0.155241
-0.416138 -0.056313 -0.564653 -0.209995 -0.873443 -0.439317 0.173591 0.111895
-1.133470 0.521483 -0.364716 0.083930 -0.431085 0.898400 0.194564 0.873402
-1.362991 0.312056 -0.443765 0.083930 -0.431085 0.898400 0.137366 0.774518
-1.199393 0.331910 -0.449522 0.083930 -0.431085 0.898400 0.199969 0.804492
1.199393 0.331910 -0.449522 -0.058022 -0.194153 0.979254 0.555844 0.810037
1.260670 0.010699 -0.509577 -0.058022 -0.194153 0.979254 0.566710 0.719697
1.362991 0.312056 -0.443765 -0.058022 -0.194153 0.979254 0.618977 0.782060
-1.199393 0.331910 -0.449522 -0.499382 -0.066241 0.863846 0.199969 0.804492
-1.260670 0.010699 -0.509577 -0.499382 -0.066241 0.863846 0.191733 0.713616
-1.147273 0.048080 -0.441156 -0.499382 -0.066241 0.863846 0.226441 0.744152
1.147273 0.048080 -0.441156 0.563898 0.308322 0.766131 0.531194 0.749179
0.850439 -0.114563 -0.157222 0.563898 0.308322 0.766131 0.448160 0.676763
1.260670 0.010699 -0.509577 0.563898 0.308322 0.766131 0.566710 0.719697
0.972876 0.294463 -0.348509 0.682464 -0.441171 0.582761 0.477856 0.821579
1.133470 0.521483 -0.364716 0.682464 -0.441171 0.582761 0.559264 0.878730
0.853487 0.326571 -0.184387 0.682464 -0.441171 0.582761 0.402311 0.849094
-0.972876 0.294463 -0.348509 -0.428219 -0.240739 0.871019 0.277953 0.818264
-1.133470 0.521483 -0.364716 -0.428219 -0.240739 0.871019 0.194564 0.873402
-1.199393 0.331910 -0.449522 -0.428219 -0.240739 0.871019 0.199969 0.804492
0.850439 -0.114563 -0.157222 0.228461 0.751398 0.619037 0.448160 0.676763
0.856900 0.001803 -0.300854 0.228461 0.751398 0.619037 0.444091 0.727422
0.691251 -0.076190 -0.145051 0.228461 0.751398 0.619037 0.391311 0.645199
-0.856900 0.001803 -0.300854 -0.228461 0.751398 0.619037 0.314328 0.724667
-0.850439 -0.114563 -0.157222 -0.228461 0.751398 0.619037 0.311514 0.673795
-0.691251 -0.076190 -0.145051 -0.228461 0.751398 0.619037 0.369023 0.643553
0.853487 0.326571 -0.184387 0.653771 -0.494913 0.572402 0.402311 0.849094
0.790561 0.101955 -0.306724 0.653771 -0.494913 0.572402 0.425893 0.752045
0.972876 0.294463 -0.348509 0.653771 -0.494913 0.572402 0.477856 0.821579
-0.853487 0.326571 -0.184387 -0.919001 -0.353043 0.175496 0.353108 0.847951
-0.790561 0.101955 -0.306724 -0.919001 -0.353043 0.175496 0.331961 0.749836
-0.691251 -0.076190 -0.145051 -0.919001 -0.353043 0.175496 0.369023 0.643553
-0.790561 0.101955 -0.306724 -0.097237 0.122302 0.987718 0.331961 0.749836
-0.972876 0.294463 -0.348509 -0.097237 0.122302 0.987718 0.277953 0.818264
-0.856900 0.001803 -0.300854 -0.097237 0.122302 0.987718 0.314328 0.724667
0.972876 0.294463 -0.348509 0.413552 -0.049145 0.909153 0.477856 0.821579
1.147273 0.048080 -0.441156 0.413552 -0.049145 0.909153 0.531194 0.749179
1.199393 0.331910 -0.449522 0.413552 -0.049145 0.909153 0.555844 0.810037
0.850439 -0.114563 -0.157222 0.135185 -0.972740 -0.188420 0.448160 0.676763
0.742935 -0.096205 -0.329129 0.135185 -0.972740 -0.188420 0.487205 0.611647
1.260670 0.010699 -0.509577 0.135185 -0.972740 -0.188420 0.566710 0.719697
-0.742935 -0.096205 -0.329129 -0.135185 -0.972740 -0.188420 0.274087 0.608281
-0.850439 -0.114563 -0.157222 -0.135185 -0.972740 -0.188420 0.311514 0.673795
-1.260670 0.010699 -0.509577 -0.135185 -0.972740 -0.188420 0.191733 0.713616
1.362991 0.312056 -0.443765 0.697524 0.684720 0.211234 0.618977 0.782060
1.226293 0.483535 -0.548223 0.697524 0.684720 0.211234 0.662072 0.735096
1.133470 0.521483 -0.364716 0.697524 0.684720 0.211234 0.716198 0.720783
-1.133470 0.521483 -0.364716 0.439160 0.809560 -0.389552 0.044268 0.710074
-0.822768 0.331336 -0.409608 0.439160 0.809560 -0.389552 0.114925 0.578320
-1.226293 0.483535 -0.548223 0.439160 0.809560 -0.389552 0.095882 0.726043
1.260670 0.010699 -0.509577 -0.289725 -0.098874 -0.951989 0.566710 0.719697
0.822768 0.331336 -0.409608 -0.289725 -0.098874 -0.951989 0.649822 0.581235
1.226293 0.483535 -0.548223 -0.289725 -0.098874 -0.951989 0.662072 0.735096
-1.260670 0.010699 -0.509577 0.304320 -0.121031 -0.944850 0.191733 0.713616
-0.822768 0.331336 -0.409608 0.304320 -0.121031 -0.944850 0.114925 0.578320
-0.742935 -0.096205 -0.329129 0.304320 -0.121031 -0.944850 0.274087 0.608281
1.226293 0.483535 -0.548223 0.588409 -0.023280 -0.808228 0.662072 0.735096
1.362991 0.312056 -0.443765 0.588409 -0.023280 -0.808228 0.618977 0.782060
1.260670 0.010699 -0.509577 0.588409 -0.023280 -0.808228 0.566710 0.719697
-1.260670 0.010699 -0.509577 -0.588409 -0.023280 -0.808228 0.191733 0.713616
-1.362991 0.312056 -0.443765 -0.588409 -0.023280 -0.808228 0.137366 0.774518
-1.226293 0.483535 -0.548223 -0.588409 -0.023280 -0.808228 0.095882 0.726043
-0.853487 0.326571 -0.184387 0.529309 0.843638 0.090042 0.051216 0.522659
-0.822768 0.331336 -0.409608 0.529309 0.843638 0.090042 0.114925 0.578320
-1.133470 0.521483 -0.364716 0.529309 0.843638 0.090042 0.044268 0.710074
0.691251 -0.076190 -0.145051 -0.231203 -0.972051 0.040780 0.391311 0.645199
0.742935 -0.096205 -0.329129 -0.231203 -0.972051 0.040780 0.487205 0.611647
0.850439 -0.114563 -0.157222 -0.231203 -0.972051 0.040780 0.448160 0.676763
-0.742935 -0.096205 -0.329129 0.231203 -0.972050 0.040780 0.274087 0.608281
-0.691251 -0.076190 -0.145051 0.231203 -0.972050 0.040780 0.369023 0.643553
-0.850439 -0.114563 -0.157222 0.231203 -0.972050 0.040780 0.311514 0.673795
0.343966 -0.034709 0.634877 -0.142670 -0.020282 -0.989563 0.801179 0.571419
0.074802 0.165198 0.669587 -0.142670 -0.020282 -0.989563 0.827434 0.683862
0.507824 0.475637 0.600793 -0.142670 -0.020282 -0.989563 0.963346 0.595639
-0.343966 -0.034709 0.634877 0.142670 -0.020282 -0.989562 0.797883 0.836640
-0.507824 0.475637 0.600793 0.142670 -0.020282 -0.989562 0.960966 0.819641
-0.074802 0.165198 0.669587 0.142670 -0.020282 -0.989562 0.829103 0.725473
0.504128 0.085754 0.695960 0.196859 -0.065637 0.978232 0.638102 0.266808
0.323651 0.449537 0.756688 0.196859 -0.065637 0.978232 0.614052 0.336247
0.193260 0.146196 0.762574 0.196859 -0.065637 0.978232 0.575963 0.274870
-0.504128 0.085754 0.695960 -0.163157 -0.083168 0.983088 0.400418 0.269745
-0.173792 0.157527 0.756855 -0.163157 -0.083168 0.983088 0.467732 0.274835
-0.323651 0.449537 0.756688 -0.163157 -0.083168 0.983088 0.427245 0.339672
-0.504128 0.085754 0.695960 -0.191408 0.049246 0.980274 0.400418 0.269745
-0.081894 -0.120969 0.788790 -0.191408 0.049246 0.980274 0.501621 0.194057
-0.173792 0.157527 0.756855 -0.191408 0.049246 0.980274 0.467732 0.274835
0.307136 0.131340 0.800727 -0.502866 -0.162356 0.848980 0.856334 0.615626
0.241371 0.322266 0.798285 -0.502866 -0.162356 0.848980 0.883864 0.646161
0.074802 0.165198 0.669587 -0.502866 -0.162356 0.848980 0.827434 0.683862
0.074802 0.165198 0.669587 -0.431785 -0.683552 0.588489 0.827434 0.683862
0.343966 -0.034709 0.634877 -0.431785 -0.683552 0.588489 0.801179 0.571419
0.307136 0.131340 0.800727 -0.431785 -0.683552 0.588489 0.856334 0.615626
-0.307136 0.131340 0.800727 0.431785 -0.683552 0.588489 0.854945 0.794925
-0.343966 -0.034709 0.634877 0.431785 -0.683552 0.588489 0.797883 0.836640
-0.074802 0.165198 0.669587 0.431785 -0.683552 0.588489 0.829103 0.725473
0.396908 0.367216 0.797143 -0.257533 0.900060 0.351523 0.903963 0.617825
0.507824 0.475637 0.600793 -0.257533 0.900060 0.351523 0.963346 0.595639
0.241371 0.322266 0.798285 -0.257533 0.900060 0.351523 0.883864 0.646161
0.466863 0.195096 0.766162 0.796993 0.216096 0.564007 0.879995 0.591261
0.610739 0.131675 0.587152 0.796993 0.216096 0.564007 0.883898 0.528665
0.507824 0.475637 0.600793 0.796993 0.216096 0.564007 0.963346 0.595639
-0.466863 0.195096 0.766162 -0.792478 0.219678 0.568964 0.877502 0.820316
-0.396908 0.367216 0.797143 -0.792478 0.219678 0.568964 0.902626 0.794842
-0.507824 0.475637 0.600793 -0.792478 0.219678 0.568964 0.960966 0.819641
0.220840 -0.184282 0.531800 0.840109 0.185162 0.509836 0.612025 0.160013
0.108976 -0.299581 0.758003 0.840109 0.185162 0.509836 0.537188 0.159850
0.360071 -0.927514 0.572301 0.840109 0.185162 0.509836 0.550967 0.062144
-0.360071 -0.927514 0.572301 -0.893072 0.189537 0.408041 0.486910 0.062083
-0.128537 -0.246903 0.762909 -0.893072 0.189537 0.408041 0.492947 0.169871
-0.220840 -0.184282 0.531800 -0.893072 0.189537 0.408041 0.425409 0.160506
0.220840 -0.184282 0.531800 0.150906 -0.624276 0.766490 0.612025 0.160013
0.577659 -0.086733 0.540999 0.150906 -0.624276 0.766490 0.667062 0.222716
0.504128 0.085754 0.695960 0.150906 -0.624276 0.766490 0.638102 0.266808
-0.504128 0.085754 0.695960 -0.150906 -0.624276 0.766490 0.400418 0.269745
-0.577659 -0.086733 0.540999 -0.150906 -0.624276 0.766490 0.369749 0.224966
-0.220840 -0.184282 0.531800 -0.150906 -0.624276 0.766490 0.425409 0.160506
0.577659 -0.086733 0.540999 0.688474 -0.299797 0.660398 0.667062 0.222716
0.783688 0.113242 0.416992 0.688474 -0.299797 0.660398 0.718433 0.255948
0.504128 0.085754 0.695960 0.688474 -0.299797 0.660398 0.638102 0.266808
-0.504128 0.085754 0.695960 -0.688474 -0.299797 0.660398 0.400418 0.269745
-0.783688 0.113242 0.416992 -0.688474 -0.299797 0.660398 0.316954 0.260471
-0.577659 -0.086733 0.540999 -0.688474 -0.299797 0.660398 0.369749 0.224966
-0.804609 0.402104 0.630726 -0.640774 -0.486094 0.594240 0.340533 0.320184
-0.783688 0.113242 0.416992 -0.640774 -0.486094 0.594240 0.316954 0.260471
-0.504128 0.085754 0.695960 -0.640774 -0.486094 0.594240 0.400418 0.269745
0.249584 0.772373 0.701809 0.517625 0.674962 0.525824 0.621877 0.403869
0.252177 0.653553 0.851777 0.517625 0.674962 0.525824 0.609625 0.376566
0.804609 0.402104 0.630726 0.517625 0.674962 0.525824 0.697918 0.313719
0.000000 0.371412 0.810030 0.697076 0.556071 0.452625 0.518605 0.362197
-0.249584 0.772373 0.701809 0.697076 0.556071 0.452625 0.422324 0.408474
-0.252177 0.653553 0.851777 0.697076 0.556071 0.452625 0.433429 0.380311
0.323651 0.449537 0.756688 0.232727 -0.342683 0.910168 0.614052 0.336247
0.252177 0.653553 0.851777 0.232727 -0.342683 0.910168 0.609625 0.376566
0.000000 0.371412 0.810030 0.232727 -0.342683 0.910168 0.518605 0.362197
-0.323651 0.449537 0.756688 -0.151397 0.046946 0.987358 0.427245 0.339672
-0.175863 0.363842 0.783424 -0.151397 0.046946 0.987358 0.468498 0.329332
0.000000 0.371412 0.810030 -0.151397 0.046946 0.987358 0.518605 0.362197
0.804609 0.402104 0.630726 0.204143 -0.353893 0.912735 0.697918 0.313719
0.252177 0.653553 0.851777 0.204143 -0.353893 0.912735 0.609625 0.376566
0.323651 0.449537 0.756688 0.204143 -0.353893 0.912735 0.614052 0.336247
-0.804609 0.402104 0.630726 -0.244040 -0.089742 0.965604 0.340533 0.320184
-0.568398 0.356240 0.686161 -0.244040 -0.089742 0.965604 0.385506 0.311933
-0.323651 0.449537 0.756688 -0.244040 -0.089742 0.965604 0.427245 0.339672
0.504128 0.085754 0.695960 0.232098 -0.019921 0.972488 0.638102 0.266808
0.804609 0.402104 0.630726 0.232098 -0.019921 0.972488 0.697918 0.313719
0.568398 0.356240 0.686161 0.232098 -0.019921 0.972488 0.653977 0.307523
0.175863 0.363842 0.783424 0.126817 -0.335147 0.933592 0.572932 0.327500
0.000000 0.371412 0.810030 0.126817 -0.335147 0.933592 0.518605 0.362197
-0.173792 0.157527 0.756855 0.126817 -0.335147 0.933592 0.467732 0.274835
-0.173792 0.157527 0.756855 -0.142979 -0.127820 0.981437 0.467732 0.274835
0.000000 0.371412 0.810030 -0.142979 -0.127820 0.981437 0.518605 0.362197
-0.175863 0.363842 0.783424 -0.142979 -0.127820 0.981437 0.468498 0.329332
-0.052440 -0.906879 0.690146 -0.339553 -0.194012 0.920360 0.513357 0.067295
-0.094390 -0.775152 0.702438 -0.339553 -0.194012 0.920360 0.513233 0.082469
-0.360071 -0.927514 0.572301 -0.339553 -0.194012 0.920360 0.486910 0.062083
-0.094390 -0.775152 0.702438 -0.004772 -0.114035 0.993465 0.513233 0.082469
0.108976 -0.299581 0.758003 -0.004772 -0.114035 0.993465 0.537188 0.159850
-0.128537 -0.246903 0.762909 -0.004772 -0.114035 0.993465 0.492947 0.169871
0.108976 -0.299581 0.758003 -0.121157 -0.063927 0.990573 0.537188 0.159850
-0.094390 -0.775152 0.702438 -0.121157 -0.063927 0.990573 0.513233 0.082469
0.099032 -0.731311 0.728924 -0.121157 -0.063927 0.990573 0.529464 0.085624
0.079220 -0.225541 0.827598 -0.046253 0.284139 0.957667 0.529763 0.177033
0.095211 -0.121654 0.797547 -0.046253 0.284139 0.957667 0.539056 0.192686
-0.081894 -0.120969 0.788790 -0.046253 0.284139 0.957667 0.501621 0.194057
-0.128537 -0.246903 0.762909 -0.287709 -0.089405 0.953536 0.492947 0.169871
0.079220 -0.225541 0.827598 -0.287709 -0.089405 0.953536 0.529763 0.177033
-0.081894 -0.120969 0.788790 -0.287709 -0.089405 0.953536 0.501621 0.194057
-0.128537 -0.246903 0.762909 -0.142675 -0.707728 0.691928 0.492947 0.169871
0.108976 -0.299581 0.758003 -0.142675 -0.707728 0.691928 0.537188 0.159850
0.079220 -0.225541 0.827598 -0.142675 -0.707728 0.691928 0.529763 0.177033
0.220840 -0.184282 0.531800 0.901342 -0.026350 0.432307 0.612025 0.160013
0.095211 -0.121654 0.797547 0.901342 -0.026350 0.432307 0.539056 0.192686
0.108976 -0.299581 0.758003 0.901342 -0.026350 0.432307 0.537188 0.159850
-0.128537 -0.246903 0.762909 -0.877505 0.239641 0.415400 0.492947 0.169871
-0.081894 -0.120969 0.788790 -0.877505 0.239641 0.415400 0.501621 0.194057
-0.220840 -0.184282 0.531800 -0.877505 0.239641 0.415400 0.425409 0.160506
0.804609 0.402104 0.630726 0.375437 0.920361 -0.109461 0.697918 0.313719
0.704473 0.404566 0.307972 0.375437 0.920361 -0.109461 0.771517 0.305840
0.462056 0.521838 0.462546 0.375437 0.920361 -0.109461 0.692106 0.388274
-0.804609 0.402104 0.630726 -0.471802 0.784487 -0.402472 0.340533 0.320184
-0.249584 0.772373 0.701809 -0.471802 0.784487 -0.402472 0.422324 0.408474
-0.462056 0.521838 0.462546 -0.471802 0.784487 -0.402472 0.350292 0.396229
-0.783688 0.113242 0.416992 -0.944939 0.147652 -0.292044 0.316954 0.260471
-0.804609 0.402104 0.630726 -0.944939 0.147652 -0.292044 0.340533 0.320184
-0.704473 0.404566 0.307972 -0.944939 0.147652 -0.292044 0.262025 0.315934
0.000000 -0.487724 0.299484 0.159132 -0.110787 -0.981021 0.646555 0.021152
0.204571 -0.405374 0.323368 0.159132 -0.110787 -0.981021 0.646338 0.081597
0.305719 -0.904663 0.396160 0.159132 -0.110787 -0.981021 0.559207 0.050412
0.000000 -0.487724 0.299484 -0.016321 -0.237189 -0.971326 0.391712 0.020395
0.305719 -0.904663 0.396160 -0.016321 -0.237189 -0.971326 0.470636 0.000144
-0.323265 -0.935812 0.414335 -0.016321 -0.237189 -0.971326 0.480458 0.052466
0.360071 -0.927514 0.572301 -0.015547 -0.992724 0.119403 0.550967 0.062144
-0.052440 -0.906879 0.690146 -0.015547 -0.992724 0.119403 0.513357 0.067295
-0.323265 -0.935812 0.414335 -0.015547 -0.992724 0.119403 0.480458 0.052466
-0.323265 -0.935812 0.414335 0.042981 -0.997126 0.062396 0.480458 0.052466
-0.052440 -0.906879 0.690146 0.042981 -0.997126 0.062396 0.513357 0.067295
-0.360071 -0.927514 0.572301 0.042981 -0.997126 0.062396 0.486910 0.062083
0.220840 -0.184282 0.531800 0.954152 0.165140 -0.249644 0.612025 0.160013
0.360071 -0.927514 0.572301 0.954152 0.165140 -0.249644 0.550967 0.062144
0.204571 -0.405374 0.323368 0.954152 0.165140 -0.249644 0.646338 0.081597
-0.204571 -0.405374 0.323368 -0.954152 0.165140 -0.249644 0.390983 0.081009
-0.360071 -0.927514 0.572301 -0.954152 0.165140 -0.249644 0.486910 0.062083
-0.220840 -0.184282 0.531800 -0.954152 0.165140 -0.249644 0.425409 0.160506
0.220840 -0.184282 0.531800 0.198067 -0.655805 -0.728485 0.612025 0.160013
0.783688 0.113242 0.416992 0.198067 -0.655805 -0.728485 0.718433 0.255948
0.577659 -0.086733 0.540999 0.198067 -0.655805 -0.728485 0.667062 0.222716
0.416138 -0.056313 -0.564653 0.439952 -0.811601 -0.384377 0.857082 0.118753
0.380830 -0.247215 -0.201982 0.439952 -0.811601 -0.384377 0.780967 0.105926
0.000000 -0.382812 -0.351562 0.439952 -0.811601 -0.384377 0.805584 0.010786
-0.416138 -0.056313 -0.564653 -0.322409 -0.770140 -0.550396 0.173591 0.111895
0.000000 -0.078116 -0.777908 -0.322409 -0.770140 -0.550396 0.110477 0.041181
0.000000 -0.382812 -0.351562 -0.322409 -0.770140 -0.550396 0.232648 0.003484
0.000000 -0.382812 -0.351562 0.382347 -0.912349 -0.146387 0.805584 0.010786
0.380830 -0.247215 -0.201982 0.382347 -0.912349 -0.146387 0.780967 0.105926
0.204571 -0.405374 0.323368 0.382347 -0.912349 -0.146387 0.646338 0.081597
-0.204571 -0.405374 0.323368 -0.382347 -0.912349 -0.146387 0.390983 0.081009
-0.380830 -0.247215 -0.201982 -0.382347 -0.912349 -0.146387 0.252960 0.102815
0.000000 -0.382812 -0.351562 -0.382347 -0.912349 -0.146387 0.232648 0.003484
0.460938 0.437500 -0.703125 0.449515 -0.278759 -0.848664 0.909112 0.183261
0.416138 -0.056313 -0.564653 0.449515 -0.278759 -0.848664 0.857082 0.118753
0.000000 -0.078116 -0.777908 0.449515 -0.278759 -0.848664 0.918961 0.058338
-0.000000 0.975406 0.187185 0.156505 0.987520 -0.017608 0.927530 0.384575
0.468039 0.900587 0.151110 0.156505 0.987520 -0.017608 0.872094 0.327733
0.182637 0.934309 -0.494337 0.156505 0.987520 -0.017608 0.967155 0.256639
-0.453125 0.867188 -0.382812 -0.152551 0.986093 -0.065945 0.098965 0.266968
-0.468039 0.900587 0.151110 -0.152551 0.986093 -0.065945 0.149702 0.344631
-0.000000 0.975406 0.187185 -0.152551 0.986093 -0.065945 0.087074 0.412341
-0.108643 0.491041 -0.869539 -0.194094 0.704962 -0.682170 0.033476 0.160709
-0.453125 0.867188 -0.382812 -0.194094 0.704962 -0.682170 0.098965 0.266968
0.182637 0.934309 -0.494337 -0.194094 0.704962 -0.682170 0.000144 0.259113
0.460938 0.437500 -0.703125 0.478646 0.554290 -0.680927 0.909112 0.183261
0.182637 0.934309 -0.494337 0.478646 0.554290 -0.680927 0.967155 0.256639
0.781262 0.611360 -0.336432 0.478646 0.554290 -0.680927 0.861062 0.236078
-0.781262 0.611360 -0.336432 -0.485309 0.491367 -0.723210 0.160829 0.240518
-0.453125 0.867188 -0.382812 -0.485309 0.491367 -0.723210 0.098965 0.266968
-0.108643 0.491041 -0.869539 -0.485309 0.491367 -0.723210 0.033476 0.160709
0.182637 0.934309 -0.494337 0.503209 0.845564 -0.178329 0.967155 0.256639
0.468039 0.900587 0.151110 0.503209 0.845564 -0.178329 0.872094 0.327733
0.781262 0.611360 -0.336432 0.503209 0.845564 -0.178329 0.861062 0.236078
-0.781262 0.611360 -0.336432 -0.619309 0.782348 -0.066238 0.160829 0.240518
-0.468039 0.900587 0.151110 -0.619309 0.782348 -0.066238 0.149702 0.344631
-0.453125 0.867188 -0.382812 -0.619309 0.782348 -0.066238 0.098965 0.266968
0.468039 0.900587 0.151110 0.624711 0.490035 0.607949 0.872094 0.327733
0.462056 0.521838 0.462546 0.624711 0.490035 0.607949 0.788548 0.367747
0.704473 0.404566 0.307972 0.624711 0.490035 0.607949 0.771517 0.305840
-0.704473 0.404566 0.307972 -0.624711 0.490035 0.607949 0.262025 0.315934
-0.462056 0.521838 0.462546 -0.624711 0.490035 0.607949 0.246525 0.386436
-0.468039 0.900587 0.151110 -0.624711 0.490035 0.607949 0.149702 0.344631
0.462056 0.521838 0.462546 0.158875 0.625565 0.763824 0.788548 0.367747
0.468039 0.900587 0.151110 0.158875 0.625565 0.763824 0.872094 0.327733
-0.000000 0.975406 0.187185 0.158875 0.625565 0.763824 0.927530 0.384575
-0.462056 0.521838 0.462546 -0.152044 0.621471 0.768542 0.246525 0.386436
-0.000000 0.421263 0.635286 -0.152044 0.621471 0.768542 0.205473 0.487752
-0.000000 0.975406 0.187185 -0.152044 0.621471 0.768542 0.087074 0.412341
0.783688 0.113242 0.416992 0.915826 0.333011 0.224425 0.718433 0.255948
0.853487 0.326571 -0.184387 0.915826 0.333011 0.224425 0.825641 0.213419
0.704473 0.404566 0.307972 0.915826 0.333011 0.224425 0.771517 0.305840
-0.781262 0.611360 -0.336432 -0.975436 0.178363 -0.129272 0.160829 0.240518
-0.822768 0.331336 -0.409608 -0.975436 0.178363 -0.129272 0.174724 0.195301
-0.853487 0.326571 -0.184387 -0.975436 0.178363 -0.129272 0.200600 0.217602
0.783688 0.113242 0.416992 0.459681 -0.626870 0.629069 0.718433 0.255948
0.220840 -0.184282 0.531800 0.459681 -0.626870 0.629069 0.612025 0.160013
0.204571 -0.405374 0.323368 0.459681 -0.626870 0.629069 0.646338 0.081597
-0.204571 -0.405374 0.323368 -0.459681 -0.626870 0.629069 0.390983 0.081009
-0.220840 -0.184282 0.531800 -0.459681 -0.626870 0.629069 0.425409 0.160506
-0.783688 0.113242 0.416992 -0.459681 -0.626870 0.629069 0.316954 0.260471
0.742935 -0.096205 -0.329129 0.545308 -0.252294 -0.799367 0.837382 0.156361
0.416138 -0.056313 -0.564653 0.545308 -0.252294 -0.799367 0.857082 0.118753
0.822768 0.331336 -0.409608 0.545308 -0.252294 -0.799367 0.838848 0.201675
-0.822768 0.331336 -0.409608 -0.501619 -0.188493 -0.844304 0.174724 0.195301
-0.108643 0.491041 -0.869539 -0.501619 -0.188493 -0.844304 0.033476 0.160709
-0.416138 -0.056313 -0.564653 -0.501619 -0.188493 -0.844304 0.173591 0.111895
0.380830 -0.247215 -0.201982 0.209995 -0.873443 -0.439317 0.780967 0.105926
0.416138 -0.056313 -0.564653 0.209995 -0.873443 -0.439317 0.857082 0.118753
0.742935 -0.096205 -0.329129 0.209995 -0.873443 -0.439317 0.837382 0.156361
-0.380830 -0.247215 -0.201982 -0.439914 -0.871119 0.218236 0.252960 0.102815
-0.691251 -0.076190 -0.145051 -0.439914 -0.871119 0.218236 0.243899 0.168309
-0.742935 -0.096205 -0.329129 -0.439914 -0.871119 0.218236 0.196622 0.155241
1.133470 0.521483 -0.364716 -0.083930 -0.431084 0.898400 0.559264 0.878730
1.199393 0.331910 -0.449522 -0.083930 -0.431084 0.898400 0.555844 0.810037
1.362991 0.312056 -0.443765 -0.083930 -0.431084 0.898400 0.618977 0.782060
1.199393 0.331910 -0.449522 0.499382 -0.066241 0.863846 0.555844 0.810037
1.147273 0.048080 -0.441156 0.499382 -0.066241 0.863846 0.531194 0.749179
1.260670 0.010699 -0.509577 0.499382 -0.066241 0.863846 0.566710 0.719697
-1.199393 0.331910 -0.449522 0.058022 -0.194153 0.979254 0.199969 0.804492
-1.362991 0.312056 -0.443765 0.058022 -0.194153 0.979254 0.137366 0.774518
-1.260670 0.010699 -0.509577 0.058022 -0.194153 0.979254 0.191733 0.713616
-1.147273 0.048080 -0.441156 -0.563898 0.308322 0.766131 0.226441 0.744152
-1.260670 0.010699 -0.509577 -0.563898 0.308322 0.766131 0.191733 0.713616
-0.850439 -0.114563 -0.157222 -0.563898 0.308322 0.766131 0.311514 0.673795
0.850439 -0.114563 -0.157222 0.180369 0.760271 0.624063 0.448160 0.676763
1.147273 0.048080 -0.441156 0.180369 0.760271 0.624063 0.531194 0.749179
0.856900 0.001803 -0.300854 0.180369 0.760271 0.624063 0.444091 0.727422
-0.856900 0.001803 -0.300854 -0.180369 0.760271 0.624063 0.314328 0.724667
-1.147273 0.048080 -0.441156 -0.180369 0.760271 0.624063 0.226441 0.744152
-0.850439 -0.114563 -0.157222 -0.180369 0.760271 0.624063 0.311514 0.673795
0.972876 0.294463 -0.348509 0.428219 -0.240739 0.871019 0.477856 0.821579
1.199393 0.331910 -0.449522 0.428219 -0.240739 0.871019 0.555844 0.810037
1.133470 0.521483 -0.364716 0.428219 -0.240739 0.871019 0.559264 0.878730
-0.972876 0.294463 -0.348509 -0.682464 -0.441171 0.582761 0.277953 0.818264
-0.853487 0.326571 -0.184387 -0.682464 -0.441171 0.582761 0.353108 0.847951
-1.133470 0.521483 -0.364716 -0.682464 -0.441171 0.582761 0.194564 0.873402
0.790561 0.101955 -0.306724 0.525429 0.392287 0.755007 0.425893 0.752045
0.691251 -0.076190 -0.145051 0.525429 0.392287 0.755007 0.391311 0.645199
0.856900 0.001803 -0.300854 0.525429 0.392287 0.755007 0.444091 0.727422
-0.856900 0.001803 -0.300854 -0.525429 0.392287 0.755007 0.314328 0.724667
-0.691251 -0.076190 -0.145051 -0.525429 0.392287 0.755007 0.369023 0.643553
-0.790561 0.101955 -0.306724 -0.525429 0.392287 0.755007 0.331961 0.749836
0.853487 0.326571 -0.184387 0.919001 -0.353043 0.175496 0.402311 0.849094
0.691251 -0.076190 -0.145051 0.919001 -0.353043 0.175496 0.391311 0.645199
0.790561 0.101955 -0.306724 0.919001 -0.353043 0.175496 0.425893 0.752045
-0.853487 0.326571 -0.184387 -0.653771 -0.494913 0.572402 0.353108 0.847951
-0.972876 0.294463 -0.348509 -0.653771 -0.494913 0.572402 0.277953 0.818264
-0.790561 0.101955 -0.306724 -0.653771 -0.494913 0.572402 0.331961 0.749836
0.790561 0.101955 -0.306724 0.097237 0.122302 0.987718 0.425893 0.752045
0.856900 0.001803 -0.300854 0.097237 0.122302 0.987718 0.444091 0.727422
0.972876 0.294463 -0.348509 0.097237 0.122302 0.987718 0.477856 0.821579
1.147273 0.048080 -0.441156 0.438438 -0.027464 0.898342 0.531194 0.749179
0.972876 0.294463 -0.348509 0.438438 -0.027464 0.898342 0.477856 0.821579
0.856900 0.001803 -0.300854 0.438438 -0.027464 0.898342 0.444091 0.727422
-0.856900 0.001803 -0.300854 -0.438438 -0.027464 0.898342 0.314328 0.724667
-0.972876 0.294463 -0.348509 -0.438438 -0.027464 0.898342 0.277953 0.818264
-1.147273 0.048080 -0.441156 -0.438438 -0.027464 0.898342 0.226441 0.744152
-0.972876 0.294463 -0.348509 -0.413552 -0.049145 0.909153 0.277953 0.818264
-1.199393 0.331910 -0.449522 -0.413552 -0.049145 0.909153 0.199969 0.804492
-1.147273 0.048080 -0.441156 -0.413552 -0.049145 0.909153 0.226441 0.744152
-1.362991 0.312056 -0.443765 -0.697524 0.684720 0.211234 0.137366 0.774518
-1.133470 0.521483 -0.364716 -0.697524 0.684720 0.211234 0.044268 0.710074
-1.226293 0.483535 -0.548223 -0.697524 0.684720 0.211234 0.095882 0.726043
1.133470 0.521483 -0.364716 -0.439160 0.809560 -0.389552 0.716198 0.720783
1.226293 0.483535 -0.548223 -0.439160 0.809560 -0.389552 0.662072 0.735096
0.822768 0.331336 -0.409608 -0.439160 0.809560 -0.389552 0.649822 0.581235
1.260670 0.010699 -0.509577 -0.304320 -0.121031 -0.944850 0.566710 0.719697
0.742935 -0.096205 -0.329129 -0.304320 -0.121031 -0.944850 0.487205 0.611647
0.822768 0.331336 -0.409608 -0.304320 -0.121031 -0.944850 0.649822 0.581235
-1.260670 0.010699 -0.509577 0.289725 -0.098873 -0.951989 0.191733 0.713616
-1.226293 0.483535 -0.548223 0.289725 -0.098873 -0.951989 0.095882 0.726043
-0.822768 0.331336 -0.409608 0.289725 -0.098873 -0.951989 0.114925 0.578320
0.853487 0.326571 -0.184387 -0.529309 0.843638 0.090042 0.825641 0.213419
1.133470 0.521483 -0.364716 -0.529309 0.843638 0.090042 0.834578 0.206879
0.822768 0.331336 -0.409608 -0.529309 0.843638 0.090042 0.838848 0.201675
0.074802 0.165198 0.669587 -0.591797 0.783352 -0.190095 0.827434 0.683862
0.241371 0.322266 0.798285 -0.591797 0.783352 -0.190095 0.883864 0.646161
0.507824 0.475637 0.600793 -0.591797 0.783352 -0.190095 0.963346 0.595639
0.610739 0.131675 0.587152 -0.169127 -0.011518 -0.985527 0.883898 0.528665
0.343966 -0.034709 0.634877 -0.169127 -0.011518 -0.985527 0.801179 0.571419
0.507824 0.475637 0.600793 -0.169127 -0.011518 -0.985527 0.963346 0.595639
-0.507824 0.475637 0.600793 0.591797 0.783352 -0.190095 0.960966 0.819641
-0.241371 0.322266 0.798285 0.591797 0.783352 -0.190095 0.883804 0.765642
-0.074802 0.165198 0.669587 0.591797 0.783352 -0.190095 0.829103 0.725473
-0.610739 0.131675 0.587152 0.169127 -0.011518 -0.985527 0.878623 0.883023
-0.507824 0.475637 0.600793 0.169127 -0.011518 -0.985527 0.960966 0.819641
-0.343966 -0.034709 0.634877 0.169127 -0.011518 -0.985527 0.797883 0.836640
0.323651 0.449537 0.756688 0.219790 -0.075603 0.972613 0.614052 0.336247
0.175863 0.363842 0.783424 0.219790 -0.075603 0.972613 0.572932 0.327500
0.193260 0.146196 0.762574 0.219790 -0.075603 0.972613 0.575963 0.274870
0.323651 0.449537 0.756688 0.266741 -0.028483 0.963347 0.614052 0.336247
0.504128 0.085754 0.695960 0.266741 -0.028483 0.963347 0.638102 0.266808
0.568398 0.356240 0.686161 0.266741 -0.028483 0.963347 0.653977 0.307523
-0.323651 0.449537 0.756688 -0.266741 -0.028483 0.963347 0.427245 0.339672
-0.568398 0.356240 0.686161 -0.266741 -0.028483 0.963347 0.385506 0.311933
-0.504128 0.085754 0.695960 -0.266741 -0.028483 0.963347 0.400418 0.269745
-0.323651 0.449537 0.756688 -0.246987 -0.126202 0.960766 0.427245 0.339672
-0.173792 0.157527 0.756855 -0.246987 -0.126202 0.960766 0.467732 0.274835
-0.175863 0.363842 0.783424 -0.246987 -0.126202 0.960766 0.468498 0.329332
3 0 1 2
3 3 4 5
3 6 7 8
3 9 10 11
3 12 13 14
3 15 16 17
3 18 19 20
3 21 22 23
3 24 25 26
3 27 28 29
3 30 31 32
3 33 34 35
3 36 37 38
3 39 40 41
3 42 43 44
3 45 46 47
3 48 49 50
3 51 52 53
3 54 55 56
3 57 58 59
3 60 61 62
3 63 64 65
3 66 67 68
3 69 70 71
3 72 73 74
3 75 76 77
3 78 79 80
3 81 82 83
3 84 85 86
3 87 88 89
3 90 91 92
3 93 94 95
3 96 97 98
3 99 100 101
3 102 103 104
3 105 106 107
3 108 109 110
3 111 112 113
3 114 115 116
3 117 118 119
3 120 121 122
3 123 124 125
3 126 127 128
3 129 130 131
3 132 133 134
3 135 136 137
3 138 139 140
3 141 142 143
3 144 145 146
3 147 148 149
3 150 151 152
3 153 154 155
3 156 157 158
3 159 160 161
3 162 163 164
3 165 166 167
3 168 169 170
3 171 172 173
3 174 175 176
3 177 178 179
3 180 181 182
3 183 184 185
3 186 187 188
3 189 190 191
3 192 193 194
3 195 196 197
3 198 199 200
3 201 202 203
3 204 205 206
3 207 208 209
3 210 211 212
3 213 214 215
3 216 217 218
3 219 220 221
3 222 223 224
3 225 226 227
3 228 229 230
3 231 232 233
3 234 235 236
3 237 238 239
3 240 241 242
3 243 244 245
3 246 247 248
3 249 250 251
3 252 253 254
3 255 256 257
3 258 259 260
3 261 262 263
3 264 265 266
3 267 268 269
3 270 271 272
3 273 274 275
3 276 277 278
3 279 280 281
3 282 283 284
3 285 286 287
3 288 289 290
3 291 292 293
3 294 295 296
3 297 298 299
3 300 301 302
3 303 304 305
3 306 307 308
3 309 310 311
3 312 313 314
3 315 316 317
3 318 319 320
3 321 322 323
3 324 325 326
3 327 328 329
3 330 331 332
3 333 334 335
3 336 337 338
3 339 340 341
3 342 343 344
3 345 346 347
3 348 349 350
3 351 352 353
3 354 355 356
3 357 358 359
3 360 361 362
3 363 364 365
3 366 367 368
3 369 370 371
3 372 373 374
3 375 376 377
3 378 379 380
3 381 382 383
3 384 385 386
3 387 388 389
3 390 391 392
3 393 394 395
3 396 397 398
3 399 400 401
3 402 403 404
3 405 406 407
3 408 409 410
3 411 412 413
3 414 415 416
3 417 418 419
3 420 421 422
3 423 424 425
3 426 427 428
3 429 430 431
3 432 433 434
3 435 436 437
3 438 439 440
3 441 442 443
3 444 445 446
3 447 448 449
3 450 451 452
3 453 454 455
3 456 457 458
3 459 460 461
3 462 463 464
3 465 466 467
3 468 469 470
3 471 472 473
3 474 475 476
3 477 478 479
3 480 481 482
3 483 484 485
3 486 487 488
3 489 490 491
3 492 493 494
3 495 496 497
3 498 499 500
3 501 502 503
3 504 505 506
3 507 508 509
3 510 511 512
3 513 514 515
3 516 517 518
3 519 520 521
3 522 523 524
3 525 526 527
3 528 529 530
3 531 532 533
3 534 535 536
3 537 538 539
3 540 541 542
3 543 544 545
3 546 547 548
3 549 550 551
3 552 553 554
3 555 556 557
3 558 559 560
3 561 562 563
3 564 565 566
3 567 568 569
3 570 571 572
3 573 574 575
3 576 577 578
3 579 580 581
3 582 583 584
3 585 586 587
3 588 589 590
3 591 592 593
